M48
; DRILL file {KiCad 8.0.5} date 2024-10-02T10:46:30-0500
; FORMAT={-:-/ absolute / inch / decimal}
; #@! TF.CreationDate,2024-10-02T10:46:30-05:00
; #@! TF.GenerationSoftware,Kicad,Pcbnew,8.0.5
; #@! TF.FileFunction,Plated,1,2,PTH
FMAT,2
INCH
; #@! TA.AperFunction,Plated,PTH,ViaDrill
T1C0.0118
; #@! TA.AperFunction,Plated,PTH,ComponentDrill
T2C0.0402
%
G90
G05
T1
X6.063Y-2.281
X6.0827Y-1.8913
X6.0827Y-1.9632
X6.4764Y-2.6628
X6.4764Y-2.7346
X6.8307Y-2.0276
X6.8346Y-1.8937
X7.2239Y-2.711
X7.2244Y-2.6362
X7.2441Y-2.2835
T2
X6.2205Y-1.6358
X6.2205Y-2.9906
X6.3386Y-1.6358
X6.3386Y-2.9906
X6.5354Y-2.2409
X6.5354Y-2.3591
X6.6535Y-2.2409
X6.6535Y-2.3591
X6.7717Y-2.2409
X6.7717Y-2.3591
X6.9685Y-1.6354
X6.9685Y-2.9906
X7.0866Y-1.6354
X7.0866Y-2.9906
M30
