%TF.GenerationSoftware,KiCad,Pcbnew,8.0.5*%
%TF.CreationDate,2024-10-02T10:46:17-05:00*%
%TF.ProjectId,FanBoardPCB,46616e42-6f61-4726-9450-43422e6b6963,rev?*%
%TF.SameCoordinates,Original*%
%TF.FileFunction,Legend,Top*%
%TF.FilePolarity,Positive*%
%FSLAX46Y46*%
G04 Gerber Fmt 4.6, Leading zero omitted, Abs format (unit mm)*
G04 Created by KiCad (PCBNEW 8.0.5) date 2024-10-02 10:46:17*
%MOMM*%
%LPD*%
G01*
G04 APERTURE LIST*
%ADD10C,0.153000*%
%ADD11C,0.120000*%
%ADD12C,0.150000*%
G04 APERTURE END LIST*
D10*
X146240280Y-49338752D02*
X147240280Y-49338752D01*
X147240280Y-49338752D02*
X147240280Y-49576847D01*
X147240280Y-49576847D02*
X147192661Y-49719704D01*
X147192661Y-49719704D02*
X147097423Y-49814942D01*
X147097423Y-49814942D02*
X147002185Y-49862561D01*
X147002185Y-49862561D02*
X146811709Y-49910180D01*
X146811709Y-49910180D02*
X146668852Y-49910180D01*
X146668852Y-49910180D02*
X146478376Y-49862561D01*
X146478376Y-49862561D02*
X146383138Y-49814942D01*
X146383138Y-49814942D02*
X146287900Y-49719704D01*
X146287900Y-49719704D02*
X146240280Y-49576847D01*
X146240280Y-49576847D02*
X146240280Y-49338752D01*
X146287900Y-50719704D02*
X146240280Y-50624466D01*
X146240280Y-50624466D02*
X146240280Y-50433990D01*
X146240280Y-50433990D02*
X146287900Y-50338752D01*
X146287900Y-50338752D02*
X146383138Y-50291133D01*
X146383138Y-50291133D02*
X146764090Y-50291133D01*
X146764090Y-50291133D02*
X146859328Y-50338752D01*
X146859328Y-50338752D02*
X146906947Y-50433990D01*
X146906947Y-50433990D02*
X146906947Y-50624466D01*
X146906947Y-50624466D02*
X146859328Y-50719704D01*
X146859328Y-50719704D02*
X146764090Y-50767323D01*
X146764090Y-50767323D02*
X146668852Y-50767323D01*
X146668852Y-50767323D02*
X146573614Y-50291133D01*
X146287900Y-51148276D02*
X146240280Y-51243514D01*
X146240280Y-51243514D02*
X146240280Y-51433990D01*
X146240280Y-51433990D02*
X146287900Y-51529228D01*
X146287900Y-51529228D02*
X146383138Y-51576847D01*
X146383138Y-51576847D02*
X146430757Y-51576847D01*
X146430757Y-51576847D02*
X146525995Y-51529228D01*
X146525995Y-51529228D02*
X146573614Y-51433990D01*
X146573614Y-51433990D02*
X146573614Y-51291133D01*
X146573614Y-51291133D02*
X146621233Y-51195895D01*
X146621233Y-51195895D02*
X146716471Y-51148276D01*
X146716471Y-51148276D02*
X146764090Y-51148276D01*
X146764090Y-51148276D02*
X146859328Y-51195895D01*
X146859328Y-51195895D02*
X146906947Y-51291133D01*
X146906947Y-51291133D02*
X146906947Y-51433990D01*
X146906947Y-51433990D02*
X146859328Y-51529228D01*
X146240280Y-52005419D02*
X146906947Y-52005419D01*
X147240280Y-52005419D02*
X147192661Y-51957800D01*
X147192661Y-51957800D02*
X147145042Y-52005419D01*
X147145042Y-52005419D02*
X147192661Y-52053038D01*
X147192661Y-52053038D02*
X147240280Y-52005419D01*
X147240280Y-52005419D02*
X147145042Y-52005419D01*
X146906947Y-52910180D02*
X146097423Y-52910180D01*
X146097423Y-52910180D02*
X146002185Y-52862561D01*
X146002185Y-52862561D02*
X145954566Y-52814942D01*
X145954566Y-52814942D02*
X145906947Y-52719704D01*
X145906947Y-52719704D02*
X145906947Y-52576847D01*
X145906947Y-52576847D02*
X145954566Y-52481609D01*
X146287900Y-52910180D02*
X146240280Y-52814942D01*
X146240280Y-52814942D02*
X146240280Y-52624466D01*
X146240280Y-52624466D02*
X146287900Y-52529228D01*
X146287900Y-52529228D02*
X146335519Y-52481609D01*
X146335519Y-52481609D02*
X146430757Y-52433990D01*
X146430757Y-52433990D02*
X146716471Y-52433990D01*
X146716471Y-52433990D02*
X146811709Y-52481609D01*
X146811709Y-52481609D02*
X146859328Y-52529228D01*
X146859328Y-52529228D02*
X146906947Y-52624466D01*
X146906947Y-52624466D02*
X146906947Y-52814942D01*
X146906947Y-52814942D02*
X146859328Y-52910180D01*
X146906947Y-53386371D02*
X146240280Y-53386371D01*
X146811709Y-53386371D02*
X146859328Y-53433990D01*
X146859328Y-53433990D02*
X146906947Y-53529228D01*
X146906947Y-53529228D02*
X146906947Y-53672085D01*
X146906947Y-53672085D02*
X146859328Y-53767323D01*
X146859328Y-53767323D02*
X146764090Y-53814942D01*
X146764090Y-53814942D02*
X146240280Y-53814942D01*
X146287900Y-54672085D02*
X146240280Y-54576847D01*
X146240280Y-54576847D02*
X146240280Y-54386371D01*
X146240280Y-54386371D02*
X146287900Y-54291133D01*
X146287900Y-54291133D02*
X146383138Y-54243514D01*
X146383138Y-54243514D02*
X146764090Y-54243514D01*
X146764090Y-54243514D02*
X146859328Y-54291133D01*
X146859328Y-54291133D02*
X146906947Y-54386371D01*
X146906947Y-54386371D02*
X146906947Y-54576847D01*
X146906947Y-54576847D02*
X146859328Y-54672085D01*
X146859328Y-54672085D02*
X146764090Y-54719704D01*
X146764090Y-54719704D02*
X146668852Y-54719704D01*
X146668852Y-54719704D02*
X146573614Y-54243514D01*
X146240280Y-55576847D02*
X147240280Y-55576847D01*
X146287900Y-55576847D02*
X146240280Y-55481609D01*
X146240280Y-55481609D02*
X146240280Y-55291133D01*
X146240280Y-55291133D02*
X146287900Y-55195895D01*
X146287900Y-55195895D02*
X146335519Y-55148276D01*
X146335519Y-55148276D02*
X146430757Y-55100657D01*
X146430757Y-55100657D02*
X146716471Y-55100657D01*
X146716471Y-55100657D02*
X146811709Y-55148276D01*
X146811709Y-55148276D02*
X146859328Y-55195895D01*
X146859328Y-55195895D02*
X146906947Y-55291133D01*
X146906947Y-55291133D02*
X146906947Y-55481609D01*
X146906947Y-55481609D02*
X146859328Y-55576847D01*
X146764090Y-57148276D02*
X146716471Y-57291133D01*
X146716471Y-57291133D02*
X146668852Y-57338752D01*
X146668852Y-57338752D02*
X146573614Y-57386371D01*
X146573614Y-57386371D02*
X146430757Y-57386371D01*
X146430757Y-57386371D02*
X146335519Y-57338752D01*
X146335519Y-57338752D02*
X146287900Y-57291133D01*
X146287900Y-57291133D02*
X146240280Y-57195895D01*
X146240280Y-57195895D02*
X146240280Y-56814943D01*
X146240280Y-56814943D02*
X147240280Y-56814943D01*
X147240280Y-56814943D02*
X147240280Y-57148276D01*
X147240280Y-57148276D02*
X147192661Y-57243514D01*
X147192661Y-57243514D02*
X147145042Y-57291133D01*
X147145042Y-57291133D02*
X147049804Y-57338752D01*
X147049804Y-57338752D02*
X146954566Y-57338752D01*
X146954566Y-57338752D02*
X146859328Y-57291133D01*
X146859328Y-57291133D02*
X146811709Y-57243514D01*
X146811709Y-57243514D02*
X146764090Y-57148276D01*
X146764090Y-57148276D02*
X146764090Y-56814943D01*
X146906947Y-57719705D02*
X146240280Y-57957800D01*
X146906947Y-58195895D02*
X146240280Y-57957800D01*
X146240280Y-57957800D02*
X146002185Y-57862562D01*
X146002185Y-57862562D02*
X145954566Y-57814943D01*
X145954566Y-57814943D02*
X145906947Y-57719705D01*
X146335519Y-58576848D02*
X146287900Y-58624467D01*
X146287900Y-58624467D02*
X146240280Y-58576848D01*
X146240280Y-58576848D02*
X146287900Y-58529229D01*
X146287900Y-58529229D02*
X146335519Y-58576848D01*
X146335519Y-58576848D02*
X146240280Y-58576848D01*
X146859328Y-58576848D02*
X146811709Y-58624467D01*
X146811709Y-58624467D02*
X146764090Y-58576848D01*
X146764090Y-58576848D02*
X146811709Y-58529229D01*
X146811709Y-58529229D02*
X146859328Y-58576848D01*
X146859328Y-58576848D02*
X146764090Y-58576848D01*
X144630336Y-49910180D02*
X145106527Y-49576847D01*
X144630336Y-49338752D02*
X145630336Y-49338752D01*
X145630336Y-49338752D02*
X145630336Y-49719704D01*
X145630336Y-49719704D02*
X145582717Y-49814942D01*
X145582717Y-49814942D02*
X145535098Y-49862561D01*
X145535098Y-49862561D02*
X145439860Y-49910180D01*
X145439860Y-49910180D02*
X145297003Y-49910180D01*
X145297003Y-49910180D02*
X145201765Y-49862561D01*
X145201765Y-49862561D02*
X145154146Y-49814942D01*
X145154146Y-49814942D02*
X145106527Y-49719704D01*
X145106527Y-49719704D02*
X145106527Y-49338752D01*
X144630336Y-50767323D02*
X145154146Y-50767323D01*
X145154146Y-50767323D02*
X145249384Y-50719704D01*
X145249384Y-50719704D02*
X145297003Y-50624466D01*
X145297003Y-50624466D02*
X145297003Y-50433990D01*
X145297003Y-50433990D02*
X145249384Y-50338752D01*
X144677956Y-50767323D02*
X144630336Y-50672085D01*
X144630336Y-50672085D02*
X144630336Y-50433990D01*
X144630336Y-50433990D02*
X144677956Y-50338752D01*
X144677956Y-50338752D02*
X144773194Y-50291133D01*
X144773194Y-50291133D02*
X144868432Y-50291133D01*
X144868432Y-50291133D02*
X144963670Y-50338752D01*
X144963670Y-50338752D02*
X145011289Y-50433990D01*
X145011289Y-50433990D02*
X145011289Y-50672085D01*
X145011289Y-50672085D02*
X145058908Y-50767323D01*
X145297003Y-51148276D02*
X144630336Y-51386371D01*
X144630336Y-51386371D02*
X145297003Y-51624466D01*
X144630336Y-52005419D02*
X145297003Y-52005419D01*
X145630336Y-52005419D02*
X145582717Y-51957800D01*
X145582717Y-51957800D02*
X145535098Y-52005419D01*
X145535098Y-52005419D02*
X145582717Y-52053038D01*
X145582717Y-52053038D02*
X145630336Y-52005419D01*
X145630336Y-52005419D02*
X145535098Y-52005419D01*
X144677956Y-53195895D02*
X144630336Y-53338752D01*
X144630336Y-53338752D02*
X144630336Y-53576847D01*
X144630336Y-53576847D02*
X144677956Y-53672085D01*
X144677956Y-53672085D02*
X144725575Y-53719704D01*
X144725575Y-53719704D02*
X144820813Y-53767323D01*
X144820813Y-53767323D02*
X144916051Y-53767323D01*
X144916051Y-53767323D02*
X145011289Y-53719704D01*
X145011289Y-53719704D02*
X145058908Y-53672085D01*
X145058908Y-53672085D02*
X145106527Y-53576847D01*
X145106527Y-53576847D02*
X145154146Y-53386371D01*
X145154146Y-53386371D02*
X145201765Y-53291133D01*
X145201765Y-53291133D02*
X145249384Y-53243514D01*
X145249384Y-53243514D02*
X145344622Y-53195895D01*
X145344622Y-53195895D02*
X145439860Y-53195895D01*
X145439860Y-53195895D02*
X145535098Y-53243514D01*
X145535098Y-53243514D02*
X145582717Y-53291133D01*
X145582717Y-53291133D02*
X145630336Y-53386371D01*
X145630336Y-53386371D02*
X145630336Y-53624466D01*
X145630336Y-53624466D02*
X145582717Y-53767323D01*
X144630336Y-54195895D02*
X145630336Y-54195895D01*
X144630336Y-54624466D02*
X145154146Y-54624466D01*
X145154146Y-54624466D02*
X145249384Y-54576847D01*
X145249384Y-54576847D02*
X145297003Y-54481609D01*
X145297003Y-54481609D02*
X145297003Y-54338752D01*
X145297003Y-54338752D02*
X145249384Y-54243514D01*
X145249384Y-54243514D02*
X145201765Y-54195895D01*
X144630336Y-55529228D02*
X145154146Y-55529228D01*
X145154146Y-55529228D02*
X145249384Y-55481609D01*
X145249384Y-55481609D02*
X145297003Y-55386371D01*
X145297003Y-55386371D02*
X145297003Y-55195895D01*
X145297003Y-55195895D02*
X145249384Y-55100657D01*
X144677956Y-55529228D02*
X144630336Y-55433990D01*
X144630336Y-55433990D02*
X144630336Y-55195895D01*
X144630336Y-55195895D02*
X144677956Y-55100657D01*
X144677956Y-55100657D02*
X144773194Y-55053038D01*
X144773194Y-55053038D02*
X144868432Y-55053038D01*
X144868432Y-55053038D02*
X144963670Y-55100657D01*
X144963670Y-55100657D02*
X145011289Y-55195895D01*
X145011289Y-55195895D02*
X145011289Y-55433990D01*
X145011289Y-55433990D02*
X145058908Y-55529228D01*
X144630336Y-56005419D02*
X145630336Y-56005419D01*
X144630336Y-56433990D02*
X145154146Y-56433990D01*
X145154146Y-56433990D02*
X145249384Y-56386371D01*
X145249384Y-56386371D02*
X145297003Y-56291133D01*
X145297003Y-56291133D02*
X145297003Y-56148276D01*
X145297003Y-56148276D02*
X145249384Y-56053038D01*
X145249384Y-56053038D02*
X145201765Y-56005419D01*
X152804663Y-63579166D02*
X152328472Y-63912499D01*
X152804663Y-64150594D02*
X151804663Y-64150594D01*
X151804663Y-64150594D02*
X151804663Y-63769642D01*
X151804663Y-63769642D02*
X151852282Y-63674404D01*
X151852282Y-63674404D02*
X151899901Y-63626785D01*
X151899901Y-63626785D02*
X151995139Y-63579166D01*
X151995139Y-63579166D02*
X152137996Y-63579166D01*
X152137996Y-63579166D02*
X152233234Y-63626785D01*
X152233234Y-63626785D02*
X152280853Y-63674404D01*
X152280853Y-63674404D02*
X152328472Y-63769642D01*
X152328472Y-63769642D02*
X152328472Y-64150594D01*
X152804663Y-63102975D02*
X152804663Y-62912499D01*
X152804663Y-62912499D02*
X152757044Y-62817261D01*
X152757044Y-62817261D02*
X152709424Y-62769642D01*
X152709424Y-62769642D02*
X152566567Y-62674404D01*
X152566567Y-62674404D02*
X152376091Y-62626785D01*
X152376091Y-62626785D02*
X151995139Y-62626785D01*
X151995139Y-62626785D02*
X151899901Y-62674404D01*
X151899901Y-62674404D02*
X151852282Y-62722023D01*
X151852282Y-62722023D02*
X151804663Y-62817261D01*
X151804663Y-62817261D02*
X151804663Y-63007737D01*
X151804663Y-63007737D02*
X151852282Y-63102975D01*
X151852282Y-63102975D02*
X151899901Y-63150594D01*
X151899901Y-63150594D02*
X151995139Y-63198213D01*
X151995139Y-63198213D02*
X152233234Y-63198213D01*
X152233234Y-63198213D02*
X152328472Y-63150594D01*
X152328472Y-63150594D02*
X152376091Y-63102975D01*
X152376091Y-63102975D02*
X152423710Y-63007737D01*
X152423710Y-63007737D02*
X152423710Y-62817261D01*
X152423710Y-62817261D02*
X152376091Y-62722023D01*
X152376091Y-62722023D02*
X152328472Y-62674404D01*
X152328472Y-62674404D02*
X152233234Y-62626785D01*
X155199901Y-64650594D02*
X155152282Y-64602975D01*
X155152282Y-64602975D02*
X155104663Y-64507737D01*
X155104663Y-64507737D02*
X155104663Y-64269642D01*
X155104663Y-64269642D02*
X155152282Y-64174404D01*
X155152282Y-64174404D02*
X155199901Y-64126785D01*
X155199901Y-64126785D02*
X155295139Y-64079166D01*
X155295139Y-64079166D02*
X155390377Y-64079166D01*
X155390377Y-64079166D02*
X155533234Y-64126785D01*
X155533234Y-64126785D02*
X156104663Y-64698213D01*
X156104663Y-64698213D02*
X156104663Y-64079166D01*
X155199901Y-63698213D02*
X155152282Y-63650594D01*
X155152282Y-63650594D02*
X155104663Y-63555356D01*
X155104663Y-63555356D02*
X155104663Y-63317261D01*
X155104663Y-63317261D02*
X155152282Y-63222023D01*
X155152282Y-63222023D02*
X155199901Y-63174404D01*
X155199901Y-63174404D02*
X155295139Y-63126785D01*
X155295139Y-63126785D02*
X155390377Y-63126785D01*
X155390377Y-63126785D02*
X155533234Y-63174404D01*
X155533234Y-63174404D02*
X156104663Y-63745832D01*
X156104663Y-63745832D02*
X156104663Y-63126785D01*
X155104663Y-62507737D02*
X155104663Y-62412499D01*
X155104663Y-62412499D02*
X155152282Y-62317261D01*
X155152282Y-62317261D02*
X155199901Y-62269642D01*
X155199901Y-62269642D02*
X155295139Y-62222023D01*
X155295139Y-62222023D02*
X155485615Y-62174404D01*
X155485615Y-62174404D02*
X155723710Y-62174404D01*
X155723710Y-62174404D02*
X155914186Y-62222023D01*
X155914186Y-62222023D02*
X156009424Y-62269642D01*
X156009424Y-62269642D02*
X156057044Y-62317261D01*
X156057044Y-62317261D02*
X156104663Y-62412499D01*
X156104663Y-62412499D02*
X156104663Y-62507737D01*
X156104663Y-62507737D02*
X156057044Y-62602975D01*
X156057044Y-62602975D02*
X156009424Y-62650594D01*
X156009424Y-62650594D02*
X155914186Y-62698213D01*
X155914186Y-62698213D02*
X155723710Y-62745832D01*
X155723710Y-62745832D02*
X155485615Y-62745832D01*
X155485615Y-62745832D02*
X155295139Y-62698213D01*
X155295139Y-62698213D02*
X155199901Y-62650594D01*
X155199901Y-62650594D02*
X155152282Y-62602975D01*
X155152282Y-62602975D02*
X155104663Y-62507737D01*
X175604663Y-49079166D02*
X175128472Y-49412499D01*
X175604663Y-49650594D02*
X174604663Y-49650594D01*
X174604663Y-49650594D02*
X174604663Y-49269642D01*
X174604663Y-49269642D02*
X174652282Y-49174404D01*
X174652282Y-49174404D02*
X174699901Y-49126785D01*
X174699901Y-49126785D02*
X174795139Y-49079166D01*
X174795139Y-49079166D02*
X174937996Y-49079166D01*
X174937996Y-49079166D02*
X175033234Y-49126785D01*
X175033234Y-49126785D02*
X175080853Y-49174404D01*
X175080853Y-49174404D02*
X175128472Y-49269642D01*
X175128472Y-49269642D02*
X175128472Y-49650594D01*
X174937996Y-48222023D02*
X175604663Y-48222023D01*
X174557044Y-48460118D02*
X175271329Y-48698213D01*
X175271329Y-48698213D02*
X175271329Y-48079166D01*
X172304663Y-49983928D02*
X172304663Y-50555356D01*
X172304663Y-50269642D02*
X171304663Y-50269642D01*
X171304663Y-50269642D02*
X171447520Y-50364880D01*
X171447520Y-50364880D02*
X171542758Y-50460118D01*
X171542758Y-50460118D02*
X171590377Y-50555356D01*
X171304663Y-49364880D02*
X171304663Y-49269642D01*
X171304663Y-49269642D02*
X171352282Y-49174404D01*
X171352282Y-49174404D02*
X171399901Y-49126785D01*
X171399901Y-49126785D02*
X171495139Y-49079166D01*
X171495139Y-49079166D02*
X171685615Y-49031547D01*
X171685615Y-49031547D02*
X171923710Y-49031547D01*
X171923710Y-49031547D02*
X172114186Y-49079166D01*
X172114186Y-49079166D02*
X172209424Y-49126785D01*
X172209424Y-49126785D02*
X172257044Y-49174404D01*
X172257044Y-49174404D02*
X172304663Y-49269642D01*
X172304663Y-49269642D02*
X172304663Y-49364880D01*
X172304663Y-49364880D02*
X172257044Y-49460118D01*
X172257044Y-49460118D02*
X172209424Y-49507737D01*
X172209424Y-49507737D02*
X172114186Y-49555356D01*
X172114186Y-49555356D02*
X171923710Y-49602975D01*
X171923710Y-49602975D02*
X171685615Y-49602975D01*
X171685615Y-49602975D02*
X171495139Y-49555356D01*
X171495139Y-49555356D02*
X171399901Y-49507737D01*
X171399901Y-49507737D02*
X171352282Y-49460118D01*
X171352282Y-49460118D02*
X171304663Y-49364880D01*
X171304663Y-48412499D02*
X171304663Y-48317261D01*
X171304663Y-48317261D02*
X171352282Y-48222023D01*
X171352282Y-48222023D02*
X171399901Y-48174404D01*
X171399901Y-48174404D02*
X171495139Y-48126785D01*
X171495139Y-48126785D02*
X171685615Y-48079166D01*
X171685615Y-48079166D02*
X171923710Y-48079166D01*
X171923710Y-48079166D02*
X172114186Y-48126785D01*
X172114186Y-48126785D02*
X172209424Y-48174404D01*
X172209424Y-48174404D02*
X172257044Y-48222023D01*
X172257044Y-48222023D02*
X172304663Y-48317261D01*
X172304663Y-48317261D02*
X172304663Y-48412499D01*
X172304663Y-48412499D02*
X172257044Y-48507737D01*
X172257044Y-48507737D02*
X172209424Y-48555356D01*
X172209424Y-48555356D02*
X172114186Y-48602975D01*
X172114186Y-48602975D02*
X171923710Y-48650594D01*
X171923710Y-48650594D02*
X171685615Y-48650594D01*
X171685615Y-48650594D02*
X171495139Y-48602975D01*
X171495139Y-48602975D02*
X171399901Y-48555356D01*
X171399901Y-48555356D02*
X171352282Y-48507737D01*
X171352282Y-48507737D02*
X171304663Y-48412499D01*
X172304663Y-47650594D02*
X171304663Y-47650594D01*
X171923710Y-47555356D02*
X172304663Y-47269642D01*
X171637996Y-47269642D02*
X172018948Y-47650594D01*
X156604663Y-49119166D02*
X156128472Y-49452499D01*
X156604663Y-49690594D02*
X155604663Y-49690594D01*
X155604663Y-49690594D02*
X155604663Y-49309642D01*
X155604663Y-49309642D02*
X155652282Y-49214404D01*
X155652282Y-49214404D02*
X155699901Y-49166785D01*
X155699901Y-49166785D02*
X155795139Y-49119166D01*
X155795139Y-49119166D02*
X155937996Y-49119166D01*
X155937996Y-49119166D02*
X156033234Y-49166785D01*
X156033234Y-49166785D02*
X156080853Y-49214404D01*
X156080853Y-49214404D02*
X156128472Y-49309642D01*
X156128472Y-49309642D02*
X156128472Y-49690594D01*
X155604663Y-48785832D02*
X155604663Y-48166785D01*
X155604663Y-48166785D02*
X155985615Y-48500118D01*
X155985615Y-48500118D02*
X155985615Y-48357261D01*
X155985615Y-48357261D02*
X156033234Y-48262023D01*
X156033234Y-48262023D02*
X156080853Y-48214404D01*
X156080853Y-48214404D02*
X156176091Y-48166785D01*
X156176091Y-48166785D02*
X156414186Y-48166785D01*
X156414186Y-48166785D02*
X156509424Y-48214404D01*
X156509424Y-48214404D02*
X156557044Y-48262023D01*
X156557044Y-48262023D02*
X156604663Y-48357261D01*
X156604663Y-48357261D02*
X156604663Y-48642975D01*
X156604663Y-48642975D02*
X156557044Y-48738213D01*
X156557044Y-48738213D02*
X156509424Y-48785832D01*
X153304663Y-50023928D02*
X153304663Y-50595356D01*
X153304663Y-50309642D02*
X152304663Y-50309642D01*
X152304663Y-50309642D02*
X152447520Y-50404880D01*
X152447520Y-50404880D02*
X152542758Y-50500118D01*
X152542758Y-50500118D02*
X152590377Y-50595356D01*
X152304663Y-49404880D02*
X152304663Y-49309642D01*
X152304663Y-49309642D02*
X152352282Y-49214404D01*
X152352282Y-49214404D02*
X152399901Y-49166785D01*
X152399901Y-49166785D02*
X152495139Y-49119166D01*
X152495139Y-49119166D02*
X152685615Y-49071547D01*
X152685615Y-49071547D02*
X152923710Y-49071547D01*
X152923710Y-49071547D02*
X153114186Y-49119166D01*
X153114186Y-49119166D02*
X153209424Y-49166785D01*
X153209424Y-49166785D02*
X153257044Y-49214404D01*
X153257044Y-49214404D02*
X153304663Y-49309642D01*
X153304663Y-49309642D02*
X153304663Y-49404880D01*
X153304663Y-49404880D02*
X153257044Y-49500118D01*
X153257044Y-49500118D02*
X153209424Y-49547737D01*
X153209424Y-49547737D02*
X153114186Y-49595356D01*
X153114186Y-49595356D02*
X152923710Y-49642975D01*
X152923710Y-49642975D02*
X152685615Y-49642975D01*
X152685615Y-49642975D02*
X152495139Y-49595356D01*
X152495139Y-49595356D02*
X152399901Y-49547737D01*
X152399901Y-49547737D02*
X152352282Y-49500118D01*
X152352282Y-49500118D02*
X152304663Y-49404880D01*
X152304663Y-48452499D02*
X152304663Y-48357261D01*
X152304663Y-48357261D02*
X152352282Y-48262023D01*
X152352282Y-48262023D02*
X152399901Y-48214404D01*
X152399901Y-48214404D02*
X152495139Y-48166785D01*
X152495139Y-48166785D02*
X152685615Y-48119166D01*
X152685615Y-48119166D02*
X152923710Y-48119166D01*
X152923710Y-48119166D02*
X153114186Y-48166785D01*
X153114186Y-48166785D02*
X153209424Y-48214404D01*
X153209424Y-48214404D02*
X153257044Y-48262023D01*
X153257044Y-48262023D02*
X153304663Y-48357261D01*
X153304663Y-48357261D02*
X153304663Y-48452499D01*
X153304663Y-48452499D02*
X153257044Y-48547737D01*
X153257044Y-48547737D02*
X153209424Y-48595356D01*
X153209424Y-48595356D02*
X153114186Y-48642975D01*
X153114186Y-48642975D02*
X152923710Y-48690594D01*
X152923710Y-48690594D02*
X152685615Y-48690594D01*
X152685615Y-48690594D02*
X152495139Y-48642975D01*
X152495139Y-48642975D02*
X152399901Y-48595356D01*
X152399901Y-48595356D02*
X152352282Y-48547737D01*
X152352282Y-48547737D02*
X152304663Y-48452499D01*
X153304663Y-47690594D02*
X152304663Y-47690594D01*
X152923710Y-47595356D02*
X153304663Y-47309642D01*
X152637996Y-47309642D02*
X153018948Y-47690594D01*
X178342261Y-47199901D02*
X178247023Y-47152282D01*
X178247023Y-47152282D02*
X178151785Y-47057044D01*
X178151785Y-47057044D02*
X178008928Y-46914186D01*
X178008928Y-46914186D02*
X177913690Y-46866567D01*
X177913690Y-46866567D02*
X177818452Y-46866567D01*
X177866071Y-47104663D02*
X177770833Y-47057044D01*
X177770833Y-47057044D02*
X177675595Y-46961805D01*
X177675595Y-46961805D02*
X177627976Y-46771329D01*
X177627976Y-46771329D02*
X177627976Y-46437996D01*
X177627976Y-46437996D02*
X177675595Y-46247520D01*
X177675595Y-46247520D02*
X177770833Y-46152282D01*
X177770833Y-46152282D02*
X177866071Y-46104663D01*
X177866071Y-46104663D02*
X178056547Y-46104663D01*
X178056547Y-46104663D02*
X178151785Y-46152282D01*
X178151785Y-46152282D02*
X178247023Y-46247520D01*
X178247023Y-46247520D02*
X178294642Y-46437996D01*
X178294642Y-46437996D02*
X178294642Y-46771329D01*
X178294642Y-46771329D02*
X178247023Y-46961805D01*
X178247023Y-46961805D02*
X178151785Y-47057044D01*
X178151785Y-47057044D02*
X178056547Y-47104663D01*
X178056547Y-47104663D02*
X177866071Y-47104663D01*
X178675595Y-46199901D02*
X178723214Y-46152282D01*
X178723214Y-46152282D02*
X178818452Y-46104663D01*
X178818452Y-46104663D02*
X179056547Y-46104663D01*
X179056547Y-46104663D02*
X179151785Y-46152282D01*
X179151785Y-46152282D02*
X179199404Y-46199901D01*
X179199404Y-46199901D02*
X179247023Y-46295139D01*
X179247023Y-46295139D02*
X179247023Y-46390377D01*
X179247023Y-46390377D02*
X179199404Y-46533234D01*
X179199404Y-46533234D02*
X178627976Y-47104663D01*
X178627976Y-47104663D02*
X179247023Y-47104663D01*
X174651786Y-51904663D02*
X174651786Y-50904663D01*
X175699404Y-51904663D02*
X175366071Y-51428472D01*
X175127976Y-51904663D02*
X175127976Y-50904663D01*
X175127976Y-50904663D02*
X175508928Y-50904663D01*
X175508928Y-50904663D02*
X175604166Y-50952282D01*
X175604166Y-50952282D02*
X175651785Y-50999901D01*
X175651785Y-50999901D02*
X175699404Y-51095139D01*
X175699404Y-51095139D02*
X175699404Y-51237996D01*
X175699404Y-51237996D02*
X175651785Y-51333234D01*
X175651785Y-51333234D02*
X175604166Y-51380853D01*
X175604166Y-51380853D02*
X175508928Y-51428472D01*
X175508928Y-51428472D02*
X175127976Y-51428472D01*
X176604166Y-51904663D02*
X176127976Y-51904663D01*
X176127976Y-51904663D02*
X176127976Y-50904663D01*
X176937500Y-51904663D02*
X176937500Y-50904663D01*
X176937500Y-50904663D02*
X177270833Y-51618948D01*
X177270833Y-51618948D02*
X177604166Y-50904663D01*
X177604166Y-50904663D02*
X177604166Y-51904663D01*
X178556547Y-51904663D02*
X178080357Y-51904663D01*
X178080357Y-51904663D02*
X178080357Y-50904663D01*
X179080357Y-50904663D02*
X179175595Y-50904663D01*
X179175595Y-50904663D02*
X179270833Y-50952282D01*
X179270833Y-50952282D02*
X179318452Y-50999901D01*
X179318452Y-50999901D02*
X179366071Y-51095139D01*
X179366071Y-51095139D02*
X179413690Y-51285615D01*
X179413690Y-51285615D02*
X179413690Y-51523710D01*
X179413690Y-51523710D02*
X179366071Y-51714186D01*
X179366071Y-51714186D02*
X179318452Y-51809424D01*
X179318452Y-51809424D02*
X179270833Y-51857044D01*
X179270833Y-51857044D02*
X179175595Y-51904663D01*
X179175595Y-51904663D02*
X179080357Y-51904663D01*
X179080357Y-51904663D02*
X178985119Y-51857044D01*
X178985119Y-51857044D02*
X178937500Y-51809424D01*
X178937500Y-51809424D02*
X178889881Y-51714186D01*
X178889881Y-51714186D02*
X178842262Y-51523710D01*
X178842262Y-51523710D02*
X178842262Y-51285615D01*
X178842262Y-51285615D02*
X178889881Y-51095139D01*
X178889881Y-51095139D02*
X178937500Y-50999901D01*
X178937500Y-50999901D02*
X178985119Y-50952282D01*
X178985119Y-50952282D02*
X179080357Y-50904663D01*
X180032738Y-50904663D02*
X180127976Y-50904663D01*
X180127976Y-50904663D02*
X180223214Y-50952282D01*
X180223214Y-50952282D02*
X180270833Y-50999901D01*
X180270833Y-50999901D02*
X180318452Y-51095139D01*
X180318452Y-51095139D02*
X180366071Y-51285615D01*
X180366071Y-51285615D02*
X180366071Y-51523710D01*
X180366071Y-51523710D02*
X180318452Y-51714186D01*
X180318452Y-51714186D02*
X180270833Y-51809424D01*
X180270833Y-51809424D02*
X180223214Y-51857044D01*
X180223214Y-51857044D02*
X180127976Y-51904663D01*
X180127976Y-51904663D02*
X180032738Y-51904663D01*
X180032738Y-51904663D02*
X179937500Y-51857044D01*
X179937500Y-51857044D02*
X179889881Y-51809424D01*
X179889881Y-51809424D02*
X179842262Y-51714186D01*
X179842262Y-51714186D02*
X179794643Y-51523710D01*
X179794643Y-51523710D02*
X179794643Y-51285615D01*
X179794643Y-51285615D02*
X179842262Y-51095139D01*
X179842262Y-51095139D02*
X179889881Y-50999901D01*
X179889881Y-50999901D02*
X179937500Y-50952282D01*
X179937500Y-50952282D02*
X180032738Y-50904663D01*
X180699405Y-50904663D02*
X181318452Y-50904663D01*
X181318452Y-50904663D02*
X180985119Y-51285615D01*
X180985119Y-51285615D02*
X181127976Y-51285615D01*
X181127976Y-51285615D02*
X181223214Y-51333234D01*
X181223214Y-51333234D02*
X181270833Y-51380853D01*
X181270833Y-51380853D02*
X181318452Y-51476091D01*
X181318452Y-51476091D02*
X181318452Y-51714186D01*
X181318452Y-51714186D02*
X181270833Y-51809424D01*
X181270833Y-51809424D02*
X181223214Y-51857044D01*
X181223214Y-51857044D02*
X181127976Y-51904663D01*
X181127976Y-51904663D02*
X180842262Y-51904663D01*
X180842262Y-51904663D02*
X180747024Y-51857044D01*
X180747024Y-51857044D02*
X180699405Y-51809424D01*
X181937500Y-50904663D02*
X182032738Y-50904663D01*
X182032738Y-50904663D02*
X182127976Y-50952282D01*
X182127976Y-50952282D02*
X182175595Y-50999901D01*
X182175595Y-50999901D02*
X182223214Y-51095139D01*
X182223214Y-51095139D02*
X182270833Y-51285615D01*
X182270833Y-51285615D02*
X182270833Y-51523710D01*
X182270833Y-51523710D02*
X182223214Y-51714186D01*
X182223214Y-51714186D02*
X182175595Y-51809424D01*
X182175595Y-51809424D02*
X182127976Y-51857044D01*
X182127976Y-51857044D02*
X182032738Y-51904663D01*
X182032738Y-51904663D02*
X181937500Y-51904663D01*
X181937500Y-51904663D02*
X181842262Y-51857044D01*
X181842262Y-51857044D02*
X181794643Y-51809424D01*
X181794643Y-51809424D02*
X181747024Y-51714186D01*
X181747024Y-51714186D02*
X181699405Y-51523710D01*
X181699405Y-51523710D02*
X181699405Y-51285615D01*
X181699405Y-51285615D02*
X181747024Y-51095139D01*
X181747024Y-51095139D02*
X181794643Y-50999901D01*
X181794643Y-50999901D02*
X181842262Y-50952282D01*
X181842262Y-50952282D02*
X181937500Y-50904663D01*
X159467261Y-47189901D02*
X159372023Y-47142282D01*
X159372023Y-47142282D02*
X159276785Y-47047044D01*
X159276785Y-47047044D02*
X159133928Y-46904186D01*
X159133928Y-46904186D02*
X159038690Y-46856567D01*
X159038690Y-46856567D02*
X158943452Y-46856567D01*
X158991071Y-47094663D02*
X158895833Y-47047044D01*
X158895833Y-47047044D02*
X158800595Y-46951805D01*
X158800595Y-46951805D02*
X158752976Y-46761329D01*
X158752976Y-46761329D02*
X158752976Y-46427996D01*
X158752976Y-46427996D02*
X158800595Y-46237520D01*
X158800595Y-46237520D02*
X158895833Y-46142282D01*
X158895833Y-46142282D02*
X158991071Y-46094663D01*
X158991071Y-46094663D02*
X159181547Y-46094663D01*
X159181547Y-46094663D02*
X159276785Y-46142282D01*
X159276785Y-46142282D02*
X159372023Y-46237520D01*
X159372023Y-46237520D02*
X159419642Y-46427996D01*
X159419642Y-46427996D02*
X159419642Y-46761329D01*
X159419642Y-46761329D02*
X159372023Y-46951805D01*
X159372023Y-46951805D02*
X159276785Y-47047044D01*
X159276785Y-47047044D02*
X159181547Y-47094663D01*
X159181547Y-47094663D02*
X158991071Y-47094663D01*
X160372023Y-47094663D02*
X159800595Y-47094663D01*
X160086309Y-47094663D02*
X160086309Y-46094663D01*
X160086309Y-46094663D02*
X159991071Y-46237520D01*
X159991071Y-46237520D02*
X159895833Y-46332758D01*
X159895833Y-46332758D02*
X159800595Y-46380377D01*
X155776786Y-51894663D02*
X155776786Y-50894663D01*
X156824404Y-51894663D02*
X156491071Y-51418472D01*
X156252976Y-51894663D02*
X156252976Y-50894663D01*
X156252976Y-50894663D02*
X156633928Y-50894663D01*
X156633928Y-50894663D02*
X156729166Y-50942282D01*
X156729166Y-50942282D02*
X156776785Y-50989901D01*
X156776785Y-50989901D02*
X156824404Y-51085139D01*
X156824404Y-51085139D02*
X156824404Y-51227996D01*
X156824404Y-51227996D02*
X156776785Y-51323234D01*
X156776785Y-51323234D02*
X156729166Y-51370853D01*
X156729166Y-51370853D02*
X156633928Y-51418472D01*
X156633928Y-51418472D02*
X156252976Y-51418472D01*
X157729166Y-51894663D02*
X157252976Y-51894663D01*
X157252976Y-51894663D02*
X157252976Y-50894663D01*
X158062500Y-51894663D02*
X158062500Y-50894663D01*
X158062500Y-50894663D02*
X158395833Y-51608948D01*
X158395833Y-51608948D02*
X158729166Y-50894663D01*
X158729166Y-50894663D02*
X158729166Y-51894663D01*
X159681547Y-51894663D02*
X159205357Y-51894663D01*
X159205357Y-51894663D02*
X159205357Y-50894663D01*
X160205357Y-50894663D02*
X160300595Y-50894663D01*
X160300595Y-50894663D02*
X160395833Y-50942282D01*
X160395833Y-50942282D02*
X160443452Y-50989901D01*
X160443452Y-50989901D02*
X160491071Y-51085139D01*
X160491071Y-51085139D02*
X160538690Y-51275615D01*
X160538690Y-51275615D02*
X160538690Y-51513710D01*
X160538690Y-51513710D02*
X160491071Y-51704186D01*
X160491071Y-51704186D02*
X160443452Y-51799424D01*
X160443452Y-51799424D02*
X160395833Y-51847044D01*
X160395833Y-51847044D02*
X160300595Y-51894663D01*
X160300595Y-51894663D02*
X160205357Y-51894663D01*
X160205357Y-51894663D02*
X160110119Y-51847044D01*
X160110119Y-51847044D02*
X160062500Y-51799424D01*
X160062500Y-51799424D02*
X160014881Y-51704186D01*
X160014881Y-51704186D02*
X159967262Y-51513710D01*
X159967262Y-51513710D02*
X159967262Y-51275615D01*
X159967262Y-51275615D02*
X160014881Y-51085139D01*
X160014881Y-51085139D02*
X160062500Y-50989901D01*
X160062500Y-50989901D02*
X160110119Y-50942282D01*
X160110119Y-50942282D02*
X160205357Y-50894663D01*
X161157738Y-50894663D02*
X161252976Y-50894663D01*
X161252976Y-50894663D02*
X161348214Y-50942282D01*
X161348214Y-50942282D02*
X161395833Y-50989901D01*
X161395833Y-50989901D02*
X161443452Y-51085139D01*
X161443452Y-51085139D02*
X161491071Y-51275615D01*
X161491071Y-51275615D02*
X161491071Y-51513710D01*
X161491071Y-51513710D02*
X161443452Y-51704186D01*
X161443452Y-51704186D02*
X161395833Y-51799424D01*
X161395833Y-51799424D02*
X161348214Y-51847044D01*
X161348214Y-51847044D02*
X161252976Y-51894663D01*
X161252976Y-51894663D02*
X161157738Y-51894663D01*
X161157738Y-51894663D02*
X161062500Y-51847044D01*
X161062500Y-51847044D02*
X161014881Y-51799424D01*
X161014881Y-51799424D02*
X160967262Y-51704186D01*
X160967262Y-51704186D02*
X160919643Y-51513710D01*
X160919643Y-51513710D02*
X160919643Y-51275615D01*
X160919643Y-51275615D02*
X160967262Y-51085139D01*
X160967262Y-51085139D02*
X161014881Y-50989901D01*
X161014881Y-50989901D02*
X161062500Y-50942282D01*
X161062500Y-50942282D02*
X161157738Y-50894663D01*
X161824405Y-50894663D02*
X162443452Y-50894663D01*
X162443452Y-50894663D02*
X162110119Y-51275615D01*
X162110119Y-51275615D02*
X162252976Y-51275615D01*
X162252976Y-51275615D02*
X162348214Y-51323234D01*
X162348214Y-51323234D02*
X162395833Y-51370853D01*
X162395833Y-51370853D02*
X162443452Y-51466091D01*
X162443452Y-51466091D02*
X162443452Y-51704186D01*
X162443452Y-51704186D02*
X162395833Y-51799424D01*
X162395833Y-51799424D02*
X162348214Y-51847044D01*
X162348214Y-51847044D02*
X162252976Y-51894663D01*
X162252976Y-51894663D02*
X161967262Y-51894663D01*
X161967262Y-51894663D02*
X161872024Y-51847044D01*
X161872024Y-51847044D02*
X161824405Y-51799424D01*
X163062500Y-50894663D02*
X163157738Y-50894663D01*
X163157738Y-50894663D02*
X163252976Y-50942282D01*
X163252976Y-50942282D02*
X163300595Y-50989901D01*
X163300595Y-50989901D02*
X163348214Y-51085139D01*
X163348214Y-51085139D02*
X163395833Y-51275615D01*
X163395833Y-51275615D02*
X163395833Y-51513710D01*
X163395833Y-51513710D02*
X163348214Y-51704186D01*
X163348214Y-51704186D02*
X163300595Y-51799424D01*
X163300595Y-51799424D02*
X163252976Y-51847044D01*
X163252976Y-51847044D02*
X163157738Y-51894663D01*
X163157738Y-51894663D02*
X163062500Y-51894663D01*
X163062500Y-51894663D02*
X162967262Y-51847044D01*
X162967262Y-51847044D02*
X162919643Y-51799424D01*
X162919643Y-51799424D02*
X162872024Y-51704186D01*
X162872024Y-51704186D02*
X162824405Y-51513710D01*
X162824405Y-51513710D02*
X162824405Y-51275615D01*
X162824405Y-51275615D02*
X162872024Y-51085139D01*
X162872024Y-51085139D02*
X162919643Y-50989901D01*
X162919643Y-50989901D02*
X162967262Y-50942282D01*
X162967262Y-50942282D02*
X163062500Y-50894663D01*
X168190476Y-63044663D02*
X168190476Y-63758948D01*
X168190476Y-63758948D02*
X168142857Y-63901805D01*
X168142857Y-63901805D02*
X168047619Y-63997044D01*
X168047619Y-63997044D02*
X167904762Y-64044663D01*
X167904762Y-64044663D02*
X167809524Y-64044663D01*
X169190476Y-64044663D02*
X168619048Y-64044663D01*
X168904762Y-64044663D02*
X168904762Y-63044663D01*
X168904762Y-63044663D02*
X168809524Y-63187520D01*
X168809524Y-63187520D02*
X168714286Y-63282758D01*
X168714286Y-63282758D02*
X168619048Y-63330377D01*
X169523810Y-63044663D02*
X170142857Y-63044663D01*
X170142857Y-63044663D02*
X169809524Y-63425615D01*
X169809524Y-63425615D02*
X169952381Y-63425615D01*
X169952381Y-63425615D02*
X170047619Y-63473234D01*
X170047619Y-63473234D02*
X170095238Y-63520853D01*
X170095238Y-63520853D02*
X170142857Y-63616091D01*
X170142857Y-63616091D02*
X170142857Y-63854186D01*
X170142857Y-63854186D02*
X170095238Y-63949424D01*
X170095238Y-63949424D02*
X170047619Y-63997044D01*
X170047619Y-63997044D02*
X169952381Y-64044663D01*
X169952381Y-64044663D02*
X169666667Y-64044663D01*
X169666667Y-64044663D02*
X169571429Y-63997044D01*
X169571429Y-63997044D02*
X169523810Y-63949424D01*
X165119047Y-52340853D02*
X164785714Y-52340853D01*
X164785714Y-52864663D02*
X164785714Y-51864663D01*
X164785714Y-51864663D02*
X165261904Y-51864663D01*
X166071428Y-52864663D02*
X166071428Y-52340853D01*
X166071428Y-52340853D02*
X166023809Y-52245615D01*
X166023809Y-52245615D02*
X165928571Y-52197996D01*
X165928571Y-52197996D02*
X165738095Y-52197996D01*
X165738095Y-52197996D02*
X165642857Y-52245615D01*
X166071428Y-52817044D02*
X165976190Y-52864663D01*
X165976190Y-52864663D02*
X165738095Y-52864663D01*
X165738095Y-52864663D02*
X165642857Y-52817044D01*
X165642857Y-52817044D02*
X165595238Y-52721805D01*
X165595238Y-52721805D02*
X165595238Y-52626567D01*
X165595238Y-52626567D02*
X165642857Y-52531329D01*
X165642857Y-52531329D02*
X165738095Y-52483710D01*
X165738095Y-52483710D02*
X165976190Y-52483710D01*
X165976190Y-52483710D02*
X166071428Y-52436091D01*
X166547619Y-52197996D02*
X166547619Y-52864663D01*
X166547619Y-52293234D02*
X166595238Y-52245615D01*
X166595238Y-52245615D02*
X166690476Y-52197996D01*
X166690476Y-52197996D02*
X166833333Y-52197996D01*
X166833333Y-52197996D02*
X166928571Y-52245615D01*
X166928571Y-52245615D02*
X166976190Y-52340853D01*
X166976190Y-52340853D02*
X166976190Y-52864663D01*
X167785714Y-52340853D02*
X167928571Y-52388472D01*
X167928571Y-52388472D02*
X167976190Y-52436091D01*
X167976190Y-52436091D02*
X168023809Y-52531329D01*
X168023809Y-52531329D02*
X168023809Y-52674186D01*
X168023809Y-52674186D02*
X167976190Y-52769424D01*
X167976190Y-52769424D02*
X167928571Y-52817044D01*
X167928571Y-52817044D02*
X167833333Y-52864663D01*
X167833333Y-52864663D02*
X167452381Y-52864663D01*
X167452381Y-52864663D02*
X167452381Y-51864663D01*
X167452381Y-51864663D02*
X167785714Y-51864663D01*
X167785714Y-51864663D02*
X167880952Y-51912282D01*
X167880952Y-51912282D02*
X167928571Y-51959901D01*
X167928571Y-51959901D02*
X167976190Y-52055139D01*
X167976190Y-52055139D02*
X167976190Y-52150377D01*
X167976190Y-52150377D02*
X167928571Y-52245615D01*
X167928571Y-52245615D02*
X167880952Y-52293234D01*
X167880952Y-52293234D02*
X167785714Y-52340853D01*
X167785714Y-52340853D02*
X167452381Y-52340853D01*
X168452381Y-52864663D02*
X168452381Y-52197996D01*
X168452381Y-52388472D02*
X168500000Y-52293234D01*
X168500000Y-52293234D02*
X168547619Y-52245615D01*
X168547619Y-52245615D02*
X168642857Y-52197996D01*
X168642857Y-52197996D02*
X168738095Y-52197996D01*
X169500000Y-52864663D02*
X169500000Y-51864663D01*
X169500000Y-52817044D02*
X169404762Y-52864663D01*
X169404762Y-52864663D02*
X169214286Y-52864663D01*
X169214286Y-52864663D02*
X169119048Y-52817044D01*
X169119048Y-52817044D02*
X169071429Y-52769424D01*
X169071429Y-52769424D02*
X169023810Y-52674186D01*
X169023810Y-52674186D02*
X169023810Y-52388472D01*
X169023810Y-52388472D02*
X169071429Y-52293234D01*
X169071429Y-52293234D02*
X169119048Y-52245615D01*
X169119048Y-52245615D02*
X169214286Y-52197996D01*
X169214286Y-52197996D02*
X169404762Y-52197996D01*
X169404762Y-52197996D02*
X169500000Y-52245615D01*
X170547619Y-52769424D02*
X170500000Y-52817044D01*
X170500000Y-52817044D02*
X170357143Y-52864663D01*
X170357143Y-52864663D02*
X170261905Y-52864663D01*
X170261905Y-52864663D02*
X170119048Y-52817044D01*
X170119048Y-52817044D02*
X170023810Y-52721805D01*
X170023810Y-52721805D02*
X169976191Y-52626567D01*
X169976191Y-52626567D02*
X169928572Y-52436091D01*
X169928572Y-52436091D02*
X169928572Y-52293234D01*
X169928572Y-52293234D02*
X169976191Y-52102758D01*
X169976191Y-52102758D02*
X170023810Y-52007520D01*
X170023810Y-52007520D02*
X170119048Y-51912282D01*
X170119048Y-51912282D02*
X170261905Y-51864663D01*
X170261905Y-51864663D02*
X170357143Y-51864663D01*
X170357143Y-51864663D02*
X170500000Y-51912282D01*
X170500000Y-51912282D02*
X170547619Y-51959901D01*
X171119048Y-52864663D02*
X171023810Y-52817044D01*
X171023810Y-52817044D02*
X170976191Y-52769424D01*
X170976191Y-52769424D02*
X170928572Y-52674186D01*
X170928572Y-52674186D02*
X170928572Y-52388472D01*
X170928572Y-52388472D02*
X170976191Y-52293234D01*
X170976191Y-52293234D02*
X171023810Y-52245615D01*
X171023810Y-52245615D02*
X171119048Y-52197996D01*
X171119048Y-52197996D02*
X171261905Y-52197996D01*
X171261905Y-52197996D02*
X171357143Y-52245615D01*
X171357143Y-52245615D02*
X171404762Y-52293234D01*
X171404762Y-52293234D02*
X171452381Y-52388472D01*
X171452381Y-52388472D02*
X171452381Y-52674186D01*
X171452381Y-52674186D02*
X171404762Y-52769424D01*
X171404762Y-52769424D02*
X171357143Y-52817044D01*
X171357143Y-52817044D02*
X171261905Y-52864663D01*
X171261905Y-52864663D02*
X171119048Y-52864663D01*
X171880953Y-52197996D02*
X171880953Y-52864663D01*
X171880953Y-52293234D02*
X171928572Y-52245615D01*
X171928572Y-52245615D02*
X172023810Y-52197996D01*
X172023810Y-52197996D02*
X172166667Y-52197996D01*
X172166667Y-52197996D02*
X172261905Y-52245615D01*
X172261905Y-52245615D02*
X172309524Y-52340853D01*
X172309524Y-52340853D02*
X172309524Y-52864663D01*
X172785715Y-52197996D02*
X172785715Y-52864663D01*
X172785715Y-52293234D02*
X172833334Y-52245615D01*
X172833334Y-52245615D02*
X172928572Y-52197996D01*
X172928572Y-52197996D02*
X173071429Y-52197996D01*
X173071429Y-52197996D02*
X173166667Y-52245615D01*
X173166667Y-52245615D02*
X173214286Y-52340853D01*
X173214286Y-52340853D02*
X173214286Y-52864663D01*
X178166666Y-44494663D02*
X178166666Y-45208948D01*
X178166666Y-45208948D02*
X178119047Y-45351805D01*
X178119047Y-45351805D02*
X178023809Y-45447044D01*
X178023809Y-45447044D02*
X177880952Y-45494663D01*
X177880952Y-45494663D02*
X177785714Y-45494663D01*
X178595238Y-44589901D02*
X178642857Y-44542282D01*
X178642857Y-44542282D02*
X178738095Y-44494663D01*
X178738095Y-44494663D02*
X178976190Y-44494663D01*
X178976190Y-44494663D02*
X179071428Y-44542282D01*
X179071428Y-44542282D02*
X179119047Y-44589901D01*
X179119047Y-44589901D02*
X179166666Y-44685139D01*
X179166666Y-44685139D02*
X179166666Y-44780377D01*
X179166666Y-44780377D02*
X179119047Y-44923234D01*
X179119047Y-44923234D02*
X178547619Y-45494663D01*
X178547619Y-45494663D02*
X179166666Y-45494663D01*
X177214285Y-37470853D02*
X176880952Y-37470853D01*
X176880952Y-37994663D02*
X176880952Y-36994663D01*
X176880952Y-36994663D02*
X177357142Y-36994663D01*
X177690476Y-37708948D02*
X178166666Y-37708948D01*
X177595238Y-37994663D02*
X177928571Y-36994663D01*
X177928571Y-36994663D02*
X178261904Y-37994663D01*
X178595238Y-37994663D02*
X178595238Y-36994663D01*
X178595238Y-36994663D02*
X179166666Y-37994663D01*
X179166666Y-37994663D02*
X179166666Y-36994663D01*
X180071428Y-37327996D02*
X180071428Y-37994663D01*
X179833333Y-36947044D02*
X179595238Y-37661329D01*
X179595238Y-37661329D02*
X180214285Y-37661329D01*
X159166666Y-44504663D02*
X159166666Y-45218948D01*
X159166666Y-45218948D02*
X159119047Y-45361805D01*
X159119047Y-45361805D02*
X159023809Y-45457044D01*
X159023809Y-45457044D02*
X158880952Y-45504663D01*
X158880952Y-45504663D02*
X158785714Y-45504663D01*
X160166666Y-45504663D02*
X159595238Y-45504663D01*
X159880952Y-45504663D02*
X159880952Y-44504663D01*
X159880952Y-44504663D02*
X159785714Y-44647520D01*
X159785714Y-44647520D02*
X159690476Y-44742758D01*
X159690476Y-44742758D02*
X159595238Y-44790377D01*
X158214285Y-37480853D02*
X157880952Y-37480853D01*
X157880952Y-38004663D02*
X157880952Y-37004663D01*
X157880952Y-37004663D02*
X158357142Y-37004663D01*
X158690476Y-37718948D02*
X159166666Y-37718948D01*
X158595238Y-38004663D02*
X158928571Y-37004663D01*
X158928571Y-37004663D02*
X159261904Y-38004663D01*
X159595238Y-38004663D02*
X159595238Y-37004663D01*
X159595238Y-37004663D02*
X160166666Y-38004663D01*
X160166666Y-38004663D02*
X160166666Y-37004663D01*
X160547619Y-37004663D02*
X161166666Y-37004663D01*
X161166666Y-37004663D02*
X160833333Y-37385615D01*
X160833333Y-37385615D02*
X160976190Y-37385615D01*
X160976190Y-37385615D02*
X161071428Y-37433234D01*
X161071428Y-37433234D02*
X161119047Y-37480853D01*
X161119047Y-37480853D02*
X161166666Y-37576091D01*
X161166666Y-37576091D02*
X161166666Y-37814186D01*
X161166666Y-37814186D02*
X161119047Y-37909424D01*
X161119047Y-37909424D02*
X161071428Y-37957044D01*
X161071428Y-37957044D02*
X160976190Y-38004663D01*
X160976190Y-38004663D02*
X160690476Y-38004663D01*
X160690476Y-38004663D02*
X160595238Y-37957044D01*
X160595238Y-37957044D02*
X160547619Y-37909424D01*
X145738095Y-72454663D02*
X145738095Y-71454663D01*
X145738095Y-71930853D02*
X146309523Y-71930853D01*
X146309523Y-72454663D02*
X146309523Y-71454663D01*
X147214285Y-71787996D02*
X147214285Y-72454663D01*
X146976190Y-71407044D02*
X146738095Y-72121329D01*
X146738095Y-72121329D02*
X147357142Y-72121329D01*
X190738095Y-72454663D02*
X190738095Y-71454663D01*
X190738095Y-71930853D02*
X191309523Y-71930853D01*
X191309523Y-72454663D02*
X191309523Y-71454663D01*
X191690476Y-71454663D02*
X192309523Y-71454663D01*
X192309523Y-71454663D02*
X191976190Y-71835615D01*
X191976190Y-71835615D02*
X192119047Y-71835615D01*
X192119047Y-71835615D02*
X192214285Y-71883234D01*
X192214285Y-71883234D02*
X192261904Y-71930853D01*
X192261904Y-71930853D02*
X192309523Y-72026091D01*
X192309523Y-72026091D02*
X192309523Y-72264186D01*
X192309523Y-72264186D02*
X192261904Y-72359424D01*
X192261904Y-72359424D02*
X192214285Y-72407044D01*
X192214285Y-72407044D02*
X192119047Y-72454663D01*
X192119047Y-72454663D02*
X191833333Y-72454663D01*
X191833333Y-72454663D02*
X191738095Y-72407044D01*
X191738095Y-72407044D02*
X191690476Y-72359424D01*
X190738095Y-37954663D02*
X190738095Y-36954663D01*
X190738095Y-37430853D02*
X191309523Y-37430853D01*
X191309523Y-37954663D02*
X191309523Y-36954663D01*
X191738095Y-37049901D02*
X191785714Y-37002282D01*
X191785714Y-37002282D02*
X191880952Y-36954663D01*
X191880952Y-36954663D02*
X192119047Y-36954663D01*
X192119047Y-36954663D02*
X192214285Y-37002282D01*
X192214285Y-37002282D02*
X192261904Y-37049901D01*
X192261904Y-37049901D02*
X192309523Y-37145139D01*
X192309523Y-37145139D02*
X192309523Y-37240377D01*
X192309523Y-37240377D02*
X192261904Y-37383234D01*
X192261904Y-37383234D02*
X191690476Y-37954663D01*
X191690476Y-37954663D02*
X192309523Y-37954663D01*
X145738095Y-37954663D02*
X145738095Y-36954663D01*
X145738095Y-37430853D02*
X146309523Y-37430853D01*
X146309523Y-37954663D02*
X146309523Y-36954663D01*
X147309523Y-37954663D02*
X146738095Y-37954663D01*
X147023809Y-37954663D02*
X147023809Y-36954663D01*
X147023809Y-36954663D02*
X146928571Y-37097520D01*
X146928571Y-37097520D02*
X146833333Y-37192758D01*
X146833333Y-37192758D02*
X146738095Y-37240377D01*
X152454663Y-57738094D02*
X151454663Y-57738094D01*
X151454663Y-57738094D02*
X151454663Y-57499999D01*
X151454663Y-57499999D02*
X151502282Y-57357142D01*
X151502282Y-57357142D02*
X151597520Y-57261904D01*
X151597520Y-57261904D02*
X151692758Y-57214285D01*
X151692758Y-57214285D02*
X151883234Y-57166666D01*
X151883234Y-57166666D02*
X152026091Y-57166666D01*
X152026091Y-57166666D02*
X152216567Y-57214285D01*
X152216567Y-57214285D02*
X152311805Y-57261904D01*
X152311805Y-57261904D02*
X152407044Y-57357142D01*
X152407044Y-57357142D02*
X152454663Y-57499999D01*
X152454663Y-57499999D02*
X152454663Y-57738094D01*
X151454663Y-56261904D02*
X151454663Y-56738094D01*
X151454663Y-56738094D02*
X151930853Y-56785713D01*
X151930853Y-56785713D02*
X151883234Y-56738094D01*
X151883234Y-56738094D02*
X151835615Y-56642856D01*
X151835615Y-56642856D02*
X151835615Y-56404761D01*
X151835615Y-56404761D02*
X151883234Y-56309523D01*
X151883234Y-56309523D02*
X151930853Y-56261904D01*
X151930853Y-56261904D02*
X152026091Y-56214285D01*
X152026091Y-56214285D02*
X152264186Y-56214285D01*
X152264186Y-56214285D02*
X152359424Y-56261904D01*
X152359424Y-56261904D02*
X152407044Y-56309523D01*
X152407044Y-56309523D02*
X152454663Y-56404761D01*
X152454663Y-56404761D02*
X152454663Y-56642856D01*
X152454663Y-56642856D02*
X152407044Y-56738094D01*
X152407044Y-56738094D02*
X152359424Y-56785713D01*
X156454663Y-60071428D02*
X155454663Y-60071428D01*
X155454663Y-60071428D02*
X155454663Y-59690476D01*
X155454663Y-59690476D02*
X155502282Y-59595238D01*
X155502282Y-59595238D02*
X155549901Y-59547619D01*
X155549901Y-59547619D02*
X155645139Y-59500000D01*
X155645139Y-59500000D02*
X155787996Y-59500000D01*
X155787996Y-59500000D02*
X155883234Y-59547619D01*
X155883234Y-59547619D02*
X155930853Y-59595238D01*
X155930853Y-59595238D02*
X155978472Y-59690476D01*
X155978472Y-59690476D02*
X155978472Y-60071428D01*
X155454663Y-59166666D02*
X156454663Y-58928571D01*
X156454663Y-58928571D02*
X155740377Y-58738095D01*
X155740377Y-58738095D02*
X156454663Y-58547619D01*
X156454663Y-58547619D02*
X155454663Y-58309524D01*
X156454663Y-57357143D02*
X155978472Y-57690476D01*
X156454663Y-57928571D02*
X155454663Y-57928571D01*
X155454663Y-57928571D02*
X155454663Y-57547619D01*
X155454663Y-57547619D02*
X155502282Y-57452381D01*
X155502282Y-57452381D02*
X155549901Y-57404762D01*
X155549901Y-57404762D02*
X155645139Y-57357143D01*
X155645139Y-57357143D02*
X155787996Y-57357143D01*
X155787996Y-57357143D02*
X155883234Y-57404762D01*
X155883234Y-57404762D02*
X155930853Y-57452381D01*
X155930853Y-57452381D02*
X155978472Y-57547619D01*
X155978472Y-57547619D02*
X155978472Y-57928571D01*
X156454663Y-55690476D02*
X156454663Y-56166666D01*
X156454663Y-56166666D02*
X155454663Y-56166666D01*
X155930853Y-55357142D02*
X155930853Y-55023809D01*
X156454663Y-54880952D02*
X156454663Y-55357142D01*
X156454663Y-55357142D02*
X155454663Y-55357142D01*
X155454663Y-55357142D02*
X155454663Y-54880952D01*
X156454663Y-54452380D02*
X155454663Y-54452380D01*
X155454663Y-54452380D02*
X155454663Y-54214285D01*
X155454663Y-54214285D02*
X155502282Y-54071428D01*
X155502282Y-54071428D02*
X155597520Y-53976190D01*
X155597520Y-53976190D02*
X155692758Y-53928571D01*
X155692758Y-53928571D02*
X155883234Y-53880952D01*
X155883234Y-53880952D02*
X156026091Y-53880952D01*
X156026091Y-53880952D02*
X156216567Y-53928571D01*
X156216567Y-53928571D02*
X156311805Y-53976190D01*
X156311805Y-53976190D02*
X156407044Y-54071428D01*
X156407044Y-54071428D02*
X156454663Y-54214285D01*
X156454663Y-54214285D02*
X156454663Y-54452380D01*
X166954663Y-49715594D02*
X165954663Y-49715594D01*
X165954663Y-49715594D02*
X165954663Y-49477499D01*
X165954663Y-49477499D02*
X166002282Y-49334642D01*
X166002282Y-49334642D02*
X166097520Y-49239404D01*
X166097520Y-49239404D02*
X166192758Y-49191785D01*
X166192758Y-49191785D02*
X166383234Y-49144166D01*
X166383234Y-49144166D02*
X166526091Y-49144166D01*
X166526091Y-49144166D02*
X166716567Y-49191785D01*
X166716567Y-49191785D02*
X166811805Y-49239404D01*
X166811805Y-49239404D02*
X166907044Y-49334642D01*
X166907044Y-49334642D02*
X166954663Y-49477499D01*
X166954663Y-49477499D02*
X166954663Y-49715594D01*
X166049901Y-48763213D02*
X166002282Y-48715594D01*
X166002282Y-48715594D02*
X165954663Y-48620356D01*
X165954663Y-48620356D02*
X165954663Y-48382261D01*
X165954663Y-48382261D02*
X166002282Y-48287023D01*
X166002282Y-48287023D02*
X166049901Y-48239404D01*
X166049901Y-48239404D02*
X166145139Y-48191785D01*
X166145139Y-48191785D02*
X166240377Y-48191785D01*
X166240377Y-48191785D02*
X166383234Y-48239404D01*
X166383234Y-48239404D02*
X166954663Y-48810832D01*
X166954663Y-48810832D02*
X166954663Y-48191785D01*
X185954663Y-49738094D02*
X184954663Y-49738094D01*
X184954663Y-49738094D02*
X184954663Y-49499999D01*
X184954663Y-49499999D02*
X185002282Y-49357142D01*
X185002282Y-49357142D02*
X185097520Y-49261904D01*
X185097520Y-49261904D02*
X185192758Y-49214285D01*
X185192758Y-49214285D02*
X185383234Y-49166666D01*
X185383234Y-49166666D02*
X185526091Y-49166666D01*
X185526091Y-49166666D02*
X185716567Y-49214285D01*
X185716567Y-49214285D02*
X185811805Y-49261904D01*
X185811805Y-49261904D02*
X185907044Y-49357142D01*
X185907044Y-49357142D02*
X185954663Y-49499999D01*
X185954663Y-49499999D02*
X185954663Y-49738094D01*
X185954663Y-48214285D02*
X185954663Y-48785713D01*
X185954663Y-48499999D02*
X184954663Y-48499999D01*
X184954663Y-48499999D02*
X185097520Y-48595237D01*
X185097520Y-48595237D02*
X185192758Y-48690475D01*
X185192758Y-48690475D02*
X185240377Y-48785713D01*
X177679424Y-59116666D02*
X177727044Y-59164285D01*
X177727044Y-59164285D02*
X177774663Y-59307142D01*
X177774663Y-59307142D02*
X177774663Y-59402380D01*
X177774663Y-59402380D02*
X177727044Y-59545237D01*
X177727044Y-59545237D02*
X177631805Y-59640475D01*
X177631805Y-59640475D02*
X177536567Y-59688094D01*
X177536567Y-59688094D02*
X177346091Y-59735713D01*
X177346091Y-59735713D02*
X177203234Y-59735713D01*
X177203234Y-59735713D02*
X177012758Y-59688094D01*
X177012758Y-59688094D02*
X176917520Y-59640475D01*
X176917520Y-59640475D02*
X176822282Y-59545237D01*
X176822282Y-59545237D02*
X176774663Y-59402380D01*
X176774663Y-59402380D02*
X176774663Y-59307142D01*
X176774663Y-59307142D02*
X176822282Y-59164285D01*
X176822282Y-59164285D02*
X176869901Y-59116666D01*
X176869901Y-58735713D02*
X176822282Y-58688094D01*
X176822282Y-58688094D02*
X176774663Y-58592856D01*
X176774663Y-58592856D02*
X176774663Y-58354761D01*
X176774663Y-58354761D02*
X176822282Y-58259523D01*
X176822282Y-58259523D02*
X176869901Y-58211904D01*
X176869901Y-58211904D02*
X176965139Y-58164285D01*
X176965139Y-58164285D02*
X177060377Y-58164285D01*
X177060377Y-58164285D02*
X177203234Y-58211904D01*
X177203234Y-58211904D02*
X177774663Y-58783332D01*
X177774663Y-58783332D02*
X177774663Y-58164285D01*
X181134663Y-60497619D02*
X181134663Y-61069047D01*
X181134663Y-60783333D02*
X180134663Y-60783333D01*
X180134663Y-60783333D02*
X180277520Y-60878571D01*
X180277520Y-60878571D02*
X180372758Y-60973809D01*
X180372758Y-60973809D02*
X180420377Y-61069047D01*
X180134663Y-59878571D02*
X180134663Y-59783333D01*
X180134663Y-59783333D02*
X180182282Y-59688095D01*
X180182282Y-59688095D02*
X180229901Y-59640476D01*
X180229901Y-59640476D02*
X180325139Y-59592857D01*
X180325139Y-59592857D02*
X180515615Y-59545238D01*
X180515615Y-59545238D02*
X180753710Y-59545238D01*
X180753710Y-59545238D02*
X180944186Y-59592857D01*
X180944186Y-59592857D02*
X181039424Y-59640476D01*
X181039424Y-59640476D02*
X181087044Y-59688095D01*
X181087044Y-59688095D02*
X181134663Y-59783333D01*
X181134663Y-59783333D02*
X181134663Y-59878571D01*
X181134663Y-59878571D02*
X181087044Y-59973809D01*
X181087044Y-59973809D02*
X181039424Y-60021428D01*
X181039424Y-60021428D02*
X180944186Y-60069047D01*
X180944186Y-60069047D02*
X180753710Y-60116666D01*
X180753710Y-60116666D02*
X180515615Y-60116666D01*
X180515615Y-60116666D02*
X180325139Y-60069047D01*
X180325139Y-60069047D02*
X180229901Y-60021428D01*
X180229901Y-60021428D02*
X180182282Y-59973809D01*
X180182282Y-59973809D02*
X180134663Y-59878571D01*
X180134663Y-58926190D02*
X180134663Y-58830952D01*
X180134663Y-58830952D02*
X180182282Y-58735714D01*
X180182282Y-58735714D02*
X180229901Y-58688095D01*
X180229901Y-58688095D02*
X180325139Y-58640476D01*
X180325139Y-58640476D02*
X180515615Y-58592857D01*
X180515615Y-58592857D02*
X180753710Y-58592857D01*
X180753710Y-58592857D02*
X180944186Y-58640476D01*
X180944186Y-58640476D02*
X181039424Y-58688095D01*
X181039424Y-58688095D02*
X181087044Y-58735714D01*
X181087044Y-58735714D02*
X181134663Y-58830952D01*
X181134663Y-58830952D02*
X181134663Y-58926190D01*
X181134663Y-58926190D02*
X181087044Y-59021428D01*
X181087044Y-59021428D02*
X181039424Y-59069047D01*
X181039424Y-59069047D02*
X180944186Y-59116666D01*
X180944186Y-59116666D02*
X180753710Y-59164285D01*
X180753710Y-59164285D02*
X180515615Y-59164285D01*
X180515615Y-59164285D02*
X180325139Y-59116666D01*
X180325139Y-59116666D02*
X180229901Y-59069047D01*
X180229901Y-59069047D02*
X180182282Y-59021428D01*
X180182282Y-59021428D02*
X180134663Y-58926190D01*
X180467996Y-57735714D02*
X181134663Y-57735714D01*
X180467996Y-58164285D02*
X180991805Y-58164285D01*
X180991805Y-58164285D02*
X181087044Y-58116666D01*
X181087044Y-58116666D02*
X181134663Y-58021428D01*
X181134663Y-58021428D02*
X181134663Y-57878571D01*
X181134663Y-57878571D02*
X181087044Y-57783333D01*
X181087044Y-57783333D02*
X181039424Y-57735714D01*
X180610853Y-56926190D02*
X180610853Y-57259523D01*
X181134663Y-57259523D02*
X180134663Y-57259523D01*
X180134663Y-57259523D02*
X180134663Y-56783333D01*
X182679424Y-59116666D02*
X182727044Y-59164285D01*
X182727044Y-59164285D02*
X182774663Y-59307142D01*
X182774663Y-59307142D02*
X182774663Y-59402380D01*
X182774663Y-59402380D02*
X182727044Y-59545237D01*
X182727044Y-59545237D02*
X182631805Y-59640475D01*
X182631805Y-59640475D02*
X182536567Y-59688094D01*
X182536567Y-59688094D02*
X182346091Y-59735713D01*
X182346091Y-59735713D02*
X182203234Y-59735713D01*
X182203234Y-59735713D02*
X182012758Y-59688094D01*
X182012758Y-59688094D02*
X181917520Y-59640475D01*
X181917520Y-59640475D02*
X181822282Y-59545237D01*
X181822282Y-59545237D02*
X181774663Y-59402380D01*
X181774663Y-59402380D02*
X181774663Y-59307142D01*
X181774663Y-59307142D02*
X181822282Y-59164285D01*
X181822282Y-59164285D02*
X181869901Y-59116666D01*
X182774663Y-58164285D02*
X182774663Y-58735713D01*
X182774663Y-58449999D02*
X181774663Y-58449999D01*
X181774663Y-58449999D02*
X181917520Y-58545237D01*
X181917520Y-58545237D02*
X182012758Y-58640475D01*
X182012758Y-58640475D02*
X182060377Y-58735713D01*
X186134663Y-60497619D02*
X186134663Y-61069047D01*
X186134663Y-60783333D02*
X185134663Y-60783333D01*
X185134663Y-60783333D02*
X185277520Y-60878571D01*
X185277520Y-60878571D02*
X185372758Y-60973809D01*
X185372758Y-60973809D02*
X185420377Y-61069047D01*
X185134663Y-59878571D02*
X185134663Y-59783333D01*
X185134663Y-59783333D02*
X185182282Y-59688095D01*
X185182282Y-59688095D02*
X185229901Y-59640476D01*
X185229901Y-59640476D02*
X185325139Y-59592857D01*
X185325139Y-59592857D02*
X185515615Y-59545238D01*
X185515615Y-59545238D02*
X185753710Y-59545238D01*
X185753710Y-59545238D02*
X185944186Y-59592857D01*
X185944186Y-59592857D02*
X186039424Y-59640476D01*
X186039424Y-59640476D02*
X186087044Y-59688095D01*
X186087044Y-59688095D02*
X186134663Y-59783333D01*
X186134663Y-59783333D02*
X186134663Y-59878571D01*
X186134663Y-59878571D02*
X186087044Y-59973809D01*
X186087044Y-59973809D02*
X186039424Y-60021428D01*
X186039424Y-60021428D02*
X185944186Y-60069047D01*
X185944186Y-60069047D02*
X185753710Y-60116666D01*
X185753710Y-60116666D02*
X185515615Y-60116666D01*
X185515615Y-60116666D02*
X185325139Y-60069047D01*
X185325139Y-60069047D02*
X185229901Y-60021428D01*
X185229901Y-60021428D02*
X185182282Y-59973809D01*
X185182282Y-59973809D02*
X185134663Y-59878571D01*
X185134663Y-58926190D02*
X185134663Y-58830952D01*
X185134663Y-58830952D02*
X185182282Y-58735714D01*
X185182282Y-58735714D02*
X185229901Y-58688095D01*
X185229901Y-58688095D02*
X185325139Y-58640476D01*
X185325139Y-58640476D02*
X185515615Y-58592857D01*
X185515615Y-58592857D02*
X185753710Y-58592857D01*
X185753710Y-58592857D02*
X185944186Y-58640476D01*
X185944186Y-58640476D02*
X186039424Y-58688095D01*
X186039424Y-58688095D02*
X186087044Y-58735714D01*
X186087044Y-58735714D02*
X186134663Y-58830952D01*
X186134663Y-58830952D02*
X186134663Y-58926190D01*
X186134663Y-58926190D02*
X186087044Y-59021428D01*
X186087044Y-59021428D02*
X186039424Y-59069047D01*
X186039424Y-59069047D02*
X185944186Y-59116666D01*
X185944186Y-59116666D02*
X185753710Y-59164285D01*
X185753710Y-59164285D02*
X185515615Y-59164285D01*
X185515615Y-59164285D02*
X185325139Y-59116666D01*
X185325139Y-59116666D02*
X185229901Y-59069047D01*
X185229901Y-59069047D02*
X185182282Y-59021428D01*
X185182282Y-59021428D02*
X185134663Y-58926190D01*
X185467996Y-57735714D02*
X186134663Y-57735714D01*
X185467996Y-58164285D02*
X185991805Y-58164285D01*
X185991805Y-58164285D02*
X186087044Y-58116666D01*
X186087044Y-58116666D02*
X186134663Y-58021428D01*
X186134663Y-58021428D02*
X186134663Y-57878571D01*
X186134663Y-57878571D02*
X186087044Y-57783333D01*
X186087044Y-57783333D02*
X186039424Y-57735714D01*
X185610853Y-56926190D02*
X185610853Y-57259523D01*
X186134663Y-57259523D02*
X185134663Y-57259523D01*
X185134663Y-57259523D02*
X185134663Y-56783333D01*
X171454663Y-69260594D02*
X170454663Y-69260594D01*
X170454663Y-69260594D02*
X170454663Y-69022499D01*
X170454663Y-69022499D02*
X170502282Y-68879642D01*
X170502282Y-68879642D02*
X170597520Y-68784404D01*
X170597520Y-68784404D02*
X170692758Y-68736785D01*
X170692758Y-68736785D02*
X170883234Y-68689166D01*
X170883234Y-68689166D02*
X171026091Y-68689166D01*
X171026091Y-68689166D02*
X171216567Y-68736785D01*
X171216567Y-68736785D02*
X171311805Y-68784404D01*
X171311805Y-68784404D02*
X171407044Y-68879642D01*
X171407044Y-68879642D02*
X171454663Y-69022499D01*
X171454663Y-69022499D02*
X171454663Y-69260594D01*
X170454663Y-68355832D02*
X170454663Y-67736785D01*
X170454663Y-67736785D02*
X170835615Y-68070118D01*
X170835615Y-68070118D02*
X170835615Y-67927261D01*
X170835615Y-67927261D02*
X170883234Y-67832023D01*
X170883234Y-67832023D02*
X170930853Y-67784404D01*
X170930853Y-67784404D02*
X171026091Y-67736785D01*
X171026091Y-67736785D02*
X171264186Y-67736785D01*
X171264186Y-67736785D02*
X171359424Y-67784404D01*
X171359424Y-67784404D02*
X171407044Y-67832023D01*
X171407044Y-67832023D02*
X171454663Y-67927261D01*
X171454663Y-67927261D02*
X171454663Y-68212975D01*
X171454663Y-68212975D02*
X171407044Y-68308213D01*
X171407044Y-68308213D02*
X171359424Y-68355832D01*
X182304663Y-68039166D02*
X181828472Y-68372499D01*
X182304663Y-68610594D02*
X181304663Y-68610594D01*
X181304663Y-68610594D02*
X181304663Y-68229642D01*
X181304663Y-68229642D02*
X181352282Y-68134404D01*
X181352282Y-68134404D02*
X181399901Y-68086785D01*
X181399901Y-68086785D02*
X181495139Y-68039166D01*
X181495139Y-68039166D02*
X181637996Y-68039166D01*
X181637996Y-68039166D02*
X181733234Y-68086785D01*
X181733234Y-68086785D02*
X181780853Y-68134404D01*
X181780853Y-68134404D02*
X181828472Y-68229642D01*
X181828472Y-68229642D02*
X181828472Y-68610594D01*
X181399901Y-67658213D02*
X181352282Y-67610594D01*
X181352282Y-67610594D02*
X181304663Y-67515356D01*
X181304663Y-67515356D02*
X181304663Y-67277261D01*
X181304663Y-67277261D02*
X181352282Y-67182023D01*
X181352282Y-67182023D02*
X181399901Y-67134404D01*
X181399901Y-67134404D02*
X181495139Y-67086785D01*
X181495139Y-67086785D02*
X181590377Y-67086785D01*
X181590377Y-67086785D02*
X181733234Y-67134404D01*
X181733234Y-67134404D02*
X182304663Y-67705832D01*
X182304663Y-67705832D02*
X182304663Y-67086785D01*
X185604663Y-68943928D02*
X185604663Y-69515356D01*
X185604663Y-69229642D02*
X184604663Y-69229642D01*
X184604663Y-69229642D02*
X184747520Y-69324880D01*
X184747520Y-69324880D02*
X184842758Y-69420118D01*
X184842758Y-69420118D02*
X184890377Y-69515356D01*
X184604663Y-68324880D02*
X184604663Y-68229642D01*
X184604663Y-68229642D02*
X184652282Y-68134404D01*
X184652282Y-68134404D02*
X184699901Y-68086785D01*
X184699901Y-68086785D02*
X184795139Y-68039166D01*
X184795139Y-68039166D02*
X184985615Y-67991547D01*
X184985615Y-67991547D02*
X185223710Y-67991547D01*
X185223710Y-67991547D02*
X185414186Y-68039166D01*
X185414186Y-68039166D02*
X185509424Y-68086785D01*
X185509424Y-68086785D02*
X185557044Y-68134404D01*
X185557044Y-68134404D02*
X185604663Y-68229642D01*
X185604663Y-68229642D02*
X185604663Y-68324880D01*
X185604663Y-68324880D02*
X185557044Y-68420118D01*
X185557044Y-68420118D02*
X185509424Y-68467737D01*
X185509424Y-68467737D02*
X185414186Y-68515356D01*
X185414186Y-68515356D02*
X185223710Y-68562975D01*
X185223710Y-68562975D02*
X184985615Y-68562975D01*
X184985615Y-68562975D02*
X184795139Y-68515356D01*
X184795139Y-68515356D02*
X184699901Y-68467737D01*
X184699901Y-68467737D02*
X184652282Y-68420118D01*
X184652282Y-68420118D02*
X184604663Y-68324880D01*
X184604663Y-67372499D02*
X184604663Y-67277261D01*
X184604663Y-67277261D02*
X184652282Y-67182023D01*
X184652282Y-67182023D02*
X184699901Y-67134404D01*
X184699901Y-67134404D02*
X184795139Y-67086785D01*
X184795139Y-67086785D02*
X184985615Y-67039166D01*
X184985615Y-67039166D02*
X185223710Y-67039166D01*
X185223710Y-67039166D02*
X185414186Y-67086785D01*
X185414186Y-67086785D02*
X185509424Y-67134404D01*
X185509424Y-67134404D02*
X185557044Y-67182023D01*
X185557044Y-67182023D02*
X185604663Y-67277261D01*
X185604663Y-67277261D02*
X185604663Y-67372499D01*
X185604663Y-67372499D02*
X185557044Y-67467737D01*
X185557044Y-67467737D02*
X185509424Y-67515356D01*
X185509424Y-67515356D02*
X185414186Y-67562975D01*
X185414186Y-67562975D02*
X185223710Y-67610594D01*
X185223710Y-67610594D02*
X184985615Y-67610594D01*
X184985615Y-67610594D02*
X184795139Y-67562975D01*
X184795139Y-67562975D02*
X184699901Y-67515356D01*
X184699901Y-67515356D02*
X184652282Y-67467737D01*
X184652282Y-67467737D02*
X184604663Y-67372499D01*
X185604663Y-66610594D02*
X184604663Y-66610594D01*
X185223710Y-66515356D02*
X185604663Y-66229642D01*
X184937996Y-66229642D02*
X185318948Y-66610594D01*
X178166666Y-71914663D02*
X178166666Y-72628948D01*
X178166666Y-72628948D02*
X178119047Y-72771805D01*
X178119047Y-72771805D02*
X178023809Y-72867044D01*
X178023809Y-72867044D02*
X177880952Y-72914663D01*
X177880952Y-72914663D02*
X177785714Y-72914663D01*
X178547619Y-71914663D02*
X179166666Y-71914663D01*
X179166666Y-71914663D02*
X178833333Y-72295615D01*
X178833333Y-72295615D02*
X178976190Y-72295615D01*
X178976190Y-72295615D02*
X179071428Y-72343234D01*
X179071428Y-72343234D02*
X179119047Y-72390853D01*
X179119047Y-72390853D02*
X179166666Y-72486091D01*
X179166666Y-72486091D02*
X179166666Y-72724186D01*
X179166666Y-72724186D02*
X179119047Y-72819424D01*
X179119047Y-72819424D02*
X179071428Y-72867044D01*
X179071428Y-72867044D02*
X178976190Y-72914663D01*
X178976190Y-72914663D02*
X178690476Y-72914663D01*
X178690476Y-72914663D02*
X178595238Y-72867044D01*
X178595238Y-72867044D02*
X178547619Y-72819424D01*
X177214285Y-79890853D02*
X176880952Y-79890853D01*
X176880952Y-80414663D02*
X176880952Y-79414663D01*
X176880952Y-79414663D02*
X177357142Y-79414663D01*
X177690476Y-80128948D02*
X178166666Y-80128948D01*
X177595238Y-80414663D02*
X177928571Y-79414663D01*
X177928571Y-79414663D02*
X178261904Y-80414663D01*
X178595238Y-80414663D02*
X178595238Y-79414663D01*
X178595238Y-79414663D02*
X179166666Y-80414663D01*
X179166666Y-80414663D02*
X179166666Y-79414663D01*
X180166666Y-80414663D02*
X179595238Y-80414663D01*
X179880952Y-80414663D02*
X179880952Y-79414663D01*
X179880952Y-79414663D02*
X179785714Y-79557520D01*
X179785714Y-79557520D02*
X179690476Y-79652758D01*
X179690476Y-79652758D02*
X179595238Y-79700377D01*
X178342261Y-71009901D02*
X178247023Y-70962282D01*
X178247023Y-70962282D02*
X178151785Y-70867044D01*
X178151785Y-70867044D02*
X178008928Y-70724186D01*
X178008928Y-70724186D02*
X177913690Y-70676567D01*
X177913690Y-70676567D02*
X177818452Y-70676567D01*
X177866071Y-70914663D02*
X177770833Y-70867044D01*
X177770833Y-70867044D02*
X177675595Y-70771805D01*
X177675595Y-70771805D02*
X177627976Y-70581329D01*
X177627976Y-70581329D02*
X177627976Y-70247996D01*
X177627976Y-70247996D02*
X177675595Y-70057520D01*
X177675595Y-70057520D02*
X177770833Y-69962282D01*
X177770833Y-69962282D02*
X177866071Y-69914663D01*
X177866071Y-69914663D02*
X178056547Y-69914663D01*
X178056547Y-69914663D02*
X178151785Y-69962282D01*
X178151785Y-69962282D02*
X178247023Y-70057520D01*
X178247023Y-70057520D02*
X178294642Y-70247996D01*
X178294642Y-70247996D02*
X178294642Y-70581329D01*
X178294642Y-70581329D02*
X178247023Y-70771805D01*
X178247023Y-70771805D02*
X178151785Y-70867044D01*
X178151785Y-70867044D02*
X178056547Y-70914663D01*
X178056547Y-70914663D02*
X177866071Y-70914663D01*
X179151785Y-70247996D02*
X179151785Y-70914663D01*
X178913690Y-69867044D02*
X178675595Y-70581329D01*
X178675595Y-70581329D02*
X179294642Y-70581329D01*
X174651786Y-65964663D02*
X174651786Y-64964663D01*
X175699404Y-65964663D02*
X175366071Y-65488472D01*
X175127976Y-65964663D02*
X175127976Y-64964663D01*
X175127976Y-64964663D02*
X175508928Y-64964663D01*
X175508928Y-64964663D02*
X175604166Y-65012282D01*
X175604166Y-65012282D02*
X175651785Y-65059901D01*
X175651785Y-65059901D02*
X175699404Y-65155139D01*
X175699404Y-65155139D02*
X175699404Y-65297996D01*
X175699404Y-65297996D02*
X175651785Y-65393234D01*
X175651785Y-65393234D02*
X175604166Y-65440853D01*
X175604166Y-65440853D02*
X175508928Y-65488472D01*
X175508928Y-65488472D02*
X175127976Y-65488472D01*
X176604166Y-65964663D02*
X176127976Y-65964663D01*
X176127976Y-65964663D02*
X176127976Y-64964663D01*
X176937500Y-65964663D02*
X176937500Y-64964663D01*
X176937500Y-64964663D02*
X177270833Y-65678948D01*
X177270833Y-65678948D02*
X177604166Y-64964663D01*
X177604166Y-64964663D02*
X177604166Y-65964663D01*
X178556547Y-65964663D02*
X178080357Y-65964663D01*
X178080357Y-65964663D02*
X178080357Y-64964663D01*
X179080357Y-64964663D02*
X179175595Y-64964663D01*
X179175595Y-64964663D02*
X179270833Y-65012282D01*
X179270833Y-65012282D02*
X179318452Y-65059901D01*
X179318452Y-65059901D02*
X179366071Y-65155139D01*
X179366071Y-65155139D02*
X179413690Y-65345615D01*
X179413690Y-65345615D02*
X179413690Y-65583710D01*
X179413690Y-65583710D02*
X179366071Y-65774186D01*
X179366071Y-65774186D02*
X179318452Y-65869424D01*
X179318452Y-65869424D02*
X179270833Y-65917044D01*
X179270833Y-65917044D02*
X179175595Y-65964663D01*
X179175595Y-65964663D02*
X179080357Y-65964663D01*
X179080357Y-65964663D02*
X178985119Y-65917044D01*
X178985119Y-65917044D02*
X178937500Y-65869424D01*
X178937500Y-65869424D02*
X178889881Y-65774186D01*
X178889881Y-65774186D02*
X178842262Y-65583710D01*
X178842262Y-65583710D02*
X178842262Y-65345615D01*
X178842262Y-65345615D02*
X178889881Y-65155139D01*
X178889881Y-65155139D02*
X178937500Y-65059901D01*
X178937500Y-65059901D02*
X178985119Y-65012282D01*
X178985119Y-65012282D02*
X179080357Y-64964663D01*
X180032738Y-64964663D02*
X180127976Y-64964663D01*
X180127976Y-64964663D02*
X180223214Y-65012282D01*
X180223214Y-65012282D02*
X180270833Y-65059901D01*
X180270833Y-65059901D02*
X180318452Y-65155139D01*
X180318452Y-65155139D02*
X180366071Y-65345615D01*
X180366071Y-65345615D02*
X180366071Y-65583710D01*
X180366071Y-65583710D02*
X180318452Y-65774186D01*
X180318452Y-65774186D02*
X180270833Y-65869424D01*
X180270833Y-65869424D02*
X180223214Y-65917044D01*
X180223214Y-65917044D02*
X180127976Y-65964663D01*
X180127976Y-65964663D02*
X180032738Y-65964663D01*
X180032738Y-65964663D02*
X179937500Y-65917044D01*
X179937500Y-65917044D02*
X179889881Y-65869424D01*
X179889881Y-65869424D02*
X179842262Y-65774186D01*
X179842262Y-65774186D02*
X179794643Y-65583710D01*
X179794643Y-65583710D02*
X179794643Y-65345615D01*
X179794643Y-65345615D02*
X179842262Y-65155139D01*
X179842262Y-65155139D02*
X179889881Y-65059901D01*
X179889881Y-65059901D02*
X179937500Y-65012282D01*
X179937500Y-65012282D02*
X180032738Y-64964663D01*
X180699405Y-64964663D02*
X181318452Y-64964663D01*
X181318452Y-64964663D02*
X180985119Y-65345615D01*
X180985119Y-65345615D02*
X181127976Y-65345615D01*
X181127976Y-65345615D02*
X181223214Y-65393234D01*
X181223214Y-65393234D02*
X181270833Y-65440853D01*
X181270833Y-65440853D02*
X181318452Y-65536091D01*
X181318452Y-65536091D02*
X181318452Y-65774186D01*
X181318452Y-65774186D02*
X181270833Y-65869424D01*
X181270833Y-65869424D02*
X181223214Y-65917044D01*
X181223214Y-65917044D02*
X181127976Y-65964663D01*
X181127976Y-65964663D02*
X180842262Y-65964663D01*
X180842262Y-65964663D02*
X180747024Y-65917044D01*
X180747024Y-65917044D02*
X180699405Y-65869424D01*
X181937500Y-64964663D02*
X182032738Y-64964663D01*
X182032738Y-64964663D02*
X182127976Y-65012282D01*
X182127976Y-65012282D02*
X182175595Y-65059901D01*
X182175595Y-65059901D02*
X182223214Y-65155139D01*
X182223214Y-65155139D02*
X182270833Y-65345615D01*
X182270833Y-65345615D02*
X182270833Y-65583710D01*
X182270833Y-65583710D02*
X182223214Y-65774186D01*
X182223214Y-65774186D02*
X182175595Y-65869424D01*
X182175595Y-65869424D02*
X182127976Y-65917044D01*
X182127976Y-65917044D02*
X182032738Y-65964663D01*
X182032738Y-65964663D02*
X181937500Y-65964663D01*
X181937500Y-65964663D02*
X181842262Y-65917044D01*
X181842262Y-65917044D02*
X181794643Y-65869424D01*
X181794643Y-65869424D02*
X181747024Y-65774186D01*
X181747024Y-65774186D02*
X181699405Y-65583710D01*
X181699405Y-65583710D02*
X181699405Y-65345615D01*
X181699405Y-65345615D02*
X181747024Y-65155139D01*
X181747024Y-65155139D02*
X181794643Y-65059901D01*
X181794643Y-65059901D02*
X181842262Y-65012282D01*
X181842262Y-65012282D02*
X181937500Y-64964663D01*
X158904761Y-71509901D02*
X158809523Y-71462282D01*
X158809523Y-71462282D02*
X158714285Y-71367044D01*
X158714285Y-71367044D02*
X158571428Y-71224186D01*
X158571428Y-71224186D02*
X158476190Y-71176567D01*
X158476190Y-71176567D02*
X158380952Y-71176567D01*
X158428571Y-71414663D02*
X158333333Y-71367044D01*
X158333333Y-71367044D02*
X158238095Y-71271805D01*
X158238095Y-71271805D02*
X158190476Y-71081329D01*
X158190476Y-71081329D02*
X158190476Y-70747996D01*
X158190476Y-70747996D02*
X158238095Y-70557520D01*
X158238095Y-70557520D02*
X158333333Y-70462282D01*
X158333333Y-70462282D02*
X158428571Y-70414663D01*
X158428571Y-70414663D02*
X158619047Y-70414663D01*
X158619047Y-70414663D02*
X158714285Y-70462282D01*
X158714285Y-70462282D02*
X158809523Y-70557520D01*
X158809523Y-70557520D02*
X158857142Y-70747996D01*
X158857142Y-70747996D02*
X158857142Y-71081329D01*
X158857142Y-71081329D02*
X158809523Y-71271805D01*
X158809523Y-71271805D02*
X158714285Y-71367044D01*
X158714285Y-71367044D02*
X158619047Y-71414663D01*
X158619047Y-71414663D02*
X158428571Y-71414663D01*
X159190476Y-70414663D02*
X159809523Y-70414663D01*
X159809523Y-70414663D02*
X159476190Y-70795615D01*
X159476190Y-70795615D02*
X159619047Y-70795615D01*
X159619047Y-70795615D02*
X159714285Y-70843234D01*
X159714285Y-70843234D02*
X159761904Y-70890853D01*
X159761904Y-70890853D02*
X159809523Y-70986091D01*
X159809523Y-70986091D02*
X159809523Y-71224186D01*
X159809523Y-71224186D02*
X159761904Y-71319424D01*
X159761904Y-71319424D02*
X159714285Y-71367044D01*
X159714285Y-71367044D02*
X159619047Y-71414663D01*
X159619047Y-71414663D02*
X159333333Y-71414663D01*
X159333333Y-71414663D02*
X159238095Y-71367044D01*
X159238095Y-71367044D02*
X159190476Y-71319424D01*
X155651786Y-66514663D02*
X155651786Y-65514663D01*
X156699404Y-66514663D02*
X156366071Y-66038472D01*
X156127976Y-66514663D02*
X156127976Y-65514663D01*
X156127976Y-65514663D02*
X156508928Y-65514663D01*
X156508928Y-65514663D02*
X156604166Y-65562282D01*
X156604166Y-65562282D02*
X156651785Y-65609901D01*
X156651785Y-65609901D02*
X156699404Y-65705139D01*
X156699404Y-65705139D02*
X156699404Y-65847996D01*
X156699404Y-65847996D02*
X156651785Y-65943234D01*
X156651785Y-65943234D02*
X156604166Y-65990853D01*
X156604166Y-65990853D02*
X156508928Y-66038472D01*
X156508928Y-66038472D02*
X156127976Y-66038472D01*
X157604166Y-66514663D02*
X157127976Y-66514663D01*
X157127976Y-66514663D02*
X157127976Y-65514663D01*
X157937500Y-66514663D02*
X157937500Y-65514663D01*
X157937500Y-65514663D02*
X158270833Y-66228948D01*
X158270833Y-66228948D02*
X158604166Y-65514663D01*
X158604166Y-65514663D02*
X158604166Y-66514663D01*
X159556547Y-66514663D02*
X159080357Y-66514663D01*
X159080357Y-66514663D02*
X159080357Y-65514663D01*
X160080357Y-65514663D02*
X160175595Y-65514663D01*
X160175595Y-65514663D02*
X160270833Y-65562282D01*
X160270833Y-65562282D02*
X160318452Y-65609901D01*
X160318452Y-65609901D02*
X160366071Y-65705139D01*
X160366071Y-65705139D02*
X160413690Y-65895615D01*
X160413690Y-65895615D02*
X160413690Y-66133710D01*
X160413690Y-66133710D02*
X160366071Y-66324186D01*
X160366071Y-66324186D02*
X160318452Y-66419424D01*
X160318452Y-66419424D02*
X160270833Y-66467044D01*
X160270833Y-66467044D02*
X160175595Y-66514663D01*
X160175595Y-66514663D02*
X160080357Y-66514663D01*
X160080357Y-66514663D02*
X159985119Y-66467044D01*
X159985119Y-66467044D02*
X159937500Y-66419424D01*
X159937500Y-66419424D02*
X159889881Y-66324186D01*
X159889881Y-66324186D02*
X159842262Y-66133710D01*
X159842262Y-66133710D02*
X159842262Y-65895615D01*
X159842262Y-65895615D02*
X159889881Y-65705139D01*
X159889881Y-65705139D02*
X159937500Y-65609901D01*
X159937500Y-65609901D02*
X159985119Y-65562282D01*
X159985119Y-65562282D02*
X160080357Y-65514663D01*
X161032738Y-65514663D02*
X161127976Y-65514663D01*
X161127976Y-65514663D02*
X161223214Y-65562282D01*
X161223214Y-65562282D02*
X161270833Y-65609901D01*
X161270833Y-65609901D02*
X161318452Y-65705139D01*
X161318452Y-65705139D02*
X161366071Y-65895615D01*
X161366071Y-65895615D02*
X161366071Y-66133710D01*
X161366071Y-66133710D02*
X161318452Y-66324186D01*
X161318452Y-66324186D02*
X161270833Y-66419424D01*
X161270833Y-66419424D02*
X161223214Y-66467044D01*
X161223214Y-66467044D02*
X161127976Y-66514663D01*
X161127976Y-66514663D02*
X161032738Y-66514663D01*
X161032738Y-66514663D02*
X160937500Y-66467044D01*
X160937500Y-66467044D02*
X160889881Y-66419424D01*
X160889881Y-66419424D02*
X160842262Y-66324186D01*
X160842262Y-66324186D02*
X160794643Y-66133710D01*
X160794643Y-66133710D02*
X160794643Y-65895615D01*
X160794643Y-65895615D02*
X160842262Y-65705139D01*
X160842262Y-65705139D02*
X160889881Y-65609901D01*
X160889881Y-65609901D02*
X160937500Y-65562282D01*
X160937500Y-65562282D02*
X161032738Y-65514663D01*
X161699405Y-65514663D02*
X162318452Y-65514663D01*
X162318452Y-65514663D02*
X161985119Y-65895615D01*
X161985119Y-65895615D02*
X162127976Y-65895615D01*
X162127976Y-65895615D02*
X162223214Y-65943234D01*
X162223214Y-65943234D02*
X162270833Y-65990853D01*
X162270833Y-65990853D02*
X162318452Y-66086091D01*
X162318452Y-66086091D02*
X162318452Y-66324186D01*
X162318452Y-66324186D02*
X162270833Y-66419424D01*
X162270833Y-66419424D02*
X162223214Y-66467044D01*
X162223214Y-66467044D02*
X162127976Y-66514663D01*
X162127976Y-66514663D02*
X161842262Y-66514663D01*
X161842262Y-66514663D02*
X161747024Y-66467044D01*
X161747024Y-66467044D02*
X161699405Y-66419424D01*
X162937500Y-65514663D02*
X163032738Y-65514663D01*
X163032738Y-65514663D02*
X163127976Y-65562282D01*
X163127976Y-65562282D02*
X163175595Y-65609901D01*
X163175595Y-65609901D02*
X163223214Y-65705139D01*
X163223214Y-65705139D02*
X163270833Y-65895615D01*
X163270833Y-65895615D02*
X163270833Y-66133710D01*
X163270833Y-66133710D02*
X163223214Y-66324186D01*
X163223214Y-66324186D02*
X163175595Y-66419424D01*
X163175595Y-66419424D02*
X163127976Y-66467044D01*
X163127976Y-66467044D02*
X163032738Y-66514663D01*
X163032738Y-66514663D02*
X162937500Y-66514663D01*
X162937500Y-66514663D02*
X162842262Y-66467044D01*
X162842262Y-66467044D02*
X162794643Y-66419424D01*
X162794643Y-66419424D02*
X162747024Y-66324186D01*
X162747024Y-66324186D02*
X162699405Y-66133710D01*
X162699405Y-66133710D02*
X162699405Y-65895615D01*
X162699405Y-65895615D02*
X162747024Y-65705139D01*
X162747024Y-65705139D02*
X162794643Y-65609901D01*
X162794643Y-65609901D02*
X162842262Y-65562282D01*
X162842262Y-65562282D02*
X162937500Y-65514663D01*
X163304663Y-68714166D02*
X162828472Y-69047499D01*
X163304663Y-69285594D02*
X162304663Y-69285594D01*
X162304663Y-69285594D02*
X162304663Y-68904642D01*
X162304663Y-68904642D02*
X162352282Y-68809404D01*
X162352282Y-68809404D02*
X162399901Y-68761785D01*
X162399901Y-68761785D02*
X162495139Y-68714166D01*
X162495139Y-68714166D02*
X162637996Y-68714166D01*
X162637996Y-68714166D02*
X162733234Y-68761785D01*
X162733234Y-68761785D02*
X162780853Y-68809404D01*
X162780853Y-68809404D02*
X162828472Y-68904642D01*
X162828472Y-68904642D02*
X162828472Y-69285594D01*
X163304663Y-67761785D02*
X163304663Y-68333213D01*
X163304663Y-68047499D02*
X162304663Y-68047499D01*
X162304663Y-68047499D02*
X162447520Y-68142737D01*
X162447520Y-68142737D02*
X162542758Y-68237975D01*
X162542758Y-68237975D02*
X162590377Y-68333213D01*
X166604663Y-69618928D02*
X166604663Y-70190356D01*
X166604663Y-69904642D02*
X165604663Y-69904642D01*
X165604663Y-69904642D02*
X165747520Y-69999880D01*
X165747520Y-69999880D02*
X165842758Y-70095118D01*
X165842758Y-70095118D02*
X165890377Y-70190356D01*
X165604663Y-68999880D02*
X165604663Y-68904642D01*
X165604663Y-68904642D02*
X165652282Y-68809404D01*
X165652282Y-68809404D02*
X165699901Y-68761785D01*
X165699901Y-68761785D02*
X165795139Y-68714166D01*
X165795139Y-68714166D02*
X165985615Y-68666547D01*
X165985615Y-68666547D02*
X166223710Y-68666547D01*
X166223710Y-68666547D02*
X166414186Y-68714166D01*
X166414186Y-68714166D02*
X166509424Y-68761785D01*
X166509424Y-68761785D02*
X166557044Y-68809404D01*
X166557044Y-68809404D02*
X166604663Y-68904642D01*
X166604663Y-68904642D02*
X166604663Y-68999880D01*
X166604663Y-68999880D02*
X166557044Y-69095118D01*
X166557044Y-69095118D02*
X166509424Y-69142737D01*
X166509424Y-69142737D02*
X166414186Y-69190356D01*
X166414186Y-69190356D02*
X166223710Y-69237975D01*
X166223710Y-69237975D02*
X165985615Y-69237975D01*
X165985615Y-69237975D02*
X165795139Y-69190356D01*
X165795139Y-69190356D02*
X165699901Y-69142737D01*
X165699901Y-69142737D02*
X165652282Y-69095118D01*
X165652282Y-69095118D02*
X165604663Y-68999880D01*
X165604663Y-68047499D02*
X165604663Y-67952261D01*
X165604663Y-67952261D02*
X165652282Y-67857023D01*
X165652282Y-67857023D02*
X165699901Y-67809404D01*
X165699901Y-67809404D02*
X165795139Y-67761785D01*
X165795139Y-67761785D02*
X165985615Y-67714166D01*
X165985615Y-67714166D02*
X166223710Y-67714166D01*
X166223710Y-67714166D02*
X166414186Y-67761785D01*
X166414186Y-67761785D02*
X166509424Y-67809404D01*
X166509424Y-67809404D02*
X166557044Y-67857023D01*
X166557044Y-67857023D02*
X166604663Y-67952261D01*
X166604663Y-67952261D02*
X166604663Y-68047499D01*
X166604663Y-68047499D02*
X166557044Y-68142737D01*
X166557044Y-68142737D02*
X166509424Y-68190356D01*
X166509424Y-68190356D02*
X166414186Y-68237975D01*
X166414186Y-68237975D02*
X166223710Y-68285594D01*
X166223710Y-68285594D02*
X165985615Y-68285594D01*
X165985615Y-68285594D02*
X165795139Y-68237975D01*
X165795139Y-68237975D02*
X165699901Y-68190356D01*
X165699901Y-68190356D02*
X165652282Y-68142737D01*
X165652282Y-68142737D02*
X165604663Y-68047499D01*
X166604663Y-67285594D02*
X165604663Y-67285594D01*
X166223710Y-67190356D02*
X166604663Y-66904642D01*
X165937996Y-66904642D02*
X166318948Y-67285594D01*
X152954663Y-69198094D02*
X151954663Y-69198094D01*
X151954663Y-69198094D02*
X151954663Y-68959999D01*
X151954663Y-68959999D02*
X152002282Y-68817142D01*
X152002282Y-68817142D02*
X152097520Y-68721904D01*
X152097520Y-68721904D02*
X152192758Y-68674285D01*
X152192758Y-68674285D02*
X152383234Y-68626666D01*
X152383234Y-68626666D02*
X152526091Y-68626666D01*
X152526091Y-68626666D02*
X152716567Y-68674285D01*
X152716567Y-68674285D02*
X152811805Y-68721904D01*
X152811805Y-68721904D02*
X152907044Y-68817142D01*
X152907044Y-68817142D02*
X152954663Y-68959999D01*
X152954663Y-68959999D02*
X152954663Y-69198094D01*
X152287996Y-67769523D02*
X152954663Y-67769523D01*
X151907044Y-68007618D02*
X152621329Y-68245713D01*
X152621329Y-68245713D02*
X152621329Y-67626666D01*
X159166666Y-71914663D02*
X159166666Y-72628948D01*
X159166666Y-72628948D02*
X159119047Y-72771805D01*
X159119047Y-72771805D02*
X159023809Y-72867044D01*
X159023809Y-72867044D02*
X158880952Y-72914663D01*
X158880952Y-72914663D02*
X158785714Y-72914663D01*
X160071428Y-72247996D02*
X160071428Y-72914663D01*
X159833333Y-71867044D02*
X159595238Y-72581329D01*
X159595238Y-72581329D02*
X160214285Y-72581329D01*
X158214285Y-79890853D02*
X157880952Y-79890853D01*
X157880952Y-80414663D02*
X157880952Y-79414663D01*
X157880952Y-79414663D02*
X158357142Y-79414663D01*
X158690476Y-80128948D02*
X159166666Y-80128948D01*
X158595238Y-80414663D02*
X158928571Y-79414663D01*
X158928571Y-79414663D02*
X159261904Y-80414663D01*
X159595238Y-80414663D02*
X159595238Y-79414663D01*
X159595238Y-79414663D02*
X160166666Y-80414663D01*
X160166666Y-80414663D02*
X160166666Y-79414663D01*
X160595238Y-79509901D02*
X160642857Y-79462282D01*
X160642857Y-79462282D02*
X160738095Y-79414663D01*
X160738095Y-79414663D02*
X160976190Y-79414663D01*
X160976190Y-79414663D02*
X161071428Y-79462282D01*
X161071428Y-79462282D02*
X161119047Y-79509901D01*
X161119047Y-79509901D02*
X161166666Y-79605139D01*
X161166666Y-79605139D02*
X161166666Y-79700377D01*
X161166666Y-79700377D02*
X161119047Y-79843234D01*
X161119047Y-79843234D02*
X160547619Y-80414663D01*
X160547619Y-80414663D02*
X161166666Y-80414663D01*
D11*
%TO.C,R9*%
X153265000Y-63639564D02*
X153265000Y-63185436D01*
X154735000Y-63639564D02*
X154735000Y-63185436D01*
%TO.C,R4*%
X174235000Y-48685436D02*
X174235000Y-49139564D01*
X172765000Y-48685436D02*
X172765000Y-49139564D01*
%TO.C,R3*%
X153765000Y-48725436D02*
X153765000Y-49179564D01*
X155235000Y-48725436D02*
X155235000Y-49179564D01*
%TO.C,Q2*%
X178437500Y-47490000D02*
X177787500Y-47490000D01*
X178437500Y-47490000D02*
X179087500Y-47490000D01*
X178437500Y-50610000D02*
X177787500Y-50610000D01*
X178437500Y-50610000D02*
X179087500Y-50610000D01*
X177275000Y-47540000D02*
X177035000Y-47210000D01*
X177515000Y-47210000D01*
X177275000Y-47540000D01*
G36*
X177275000Y-47540000D02*
G01*
X177035000Y-47210000D01*
X177515000Y-47210000D01*
X177275000Y-47540000D01*
G37*
%TO.C,Q1*%
X158400000Y-47530000D02*
X158160000Y-47200000D01*
X158640000Y-47200000D01*
X158400000Y-47530000D01*
G36*
X158400000Y-47530000D02*
G01*
X158160000Y-47200000D01*
X158640000Y-47200000D01*
X158400000Y-47530000D01*
G37*
X159562500Y-50600000D02*
X160212500Y-50600000D01*
X159562500Y-50600000D02*
X158912500Y-50600000D01*
X159562500Y-47480000D02*
X160212500Y-47480000D01*
X159562500Y-47480000D02*
X158912500Y-47480000D01*
%TO.C,J13*%
X175685000Y-62500000D02*
X174265000Y-62500000D01*
X175685000Y-56750000D02*
X175685000Y-62500000D01*
X175685000Y-55210000D02*
X175685000Y-54910000D01*
X175685000Y-54910000D02*
X162315000Y-54910000D01*
X174265000Y-62500000D02*
X174265000Y-62000000D01*
X174265000Y-62000000D02*
X163735000Y-62000000D01*
X163735000Y-62500000D02*
X162315000Y-62500000D01*
X163735000Y-62000000D02*
X163735000Y-62500000D01*
X162315000Y-62500000D02*
X162315000Y-56750000D01*
X162315000Y-54910000D02*
X162315000Y-55210000D01*
D12*
%TO.C,J2*%
X184500000Y-44540000D02*
X181500000Y-44540000D01*
X184500000Y-39640000D02*
X184500000Y-44540000D01*
X181500000Y-44540000D02*
X181500000Y-43540000D01*
X181500000Y-43540000D02*
X175500000Y-43540000D01*
X175500000Y-44540000D02*
X172500000Y-44540000D01*
X175500000Y-43540000D02*
X175500000Y-44540000D01*
X172500000Y-44540000D02*
X172500000Y-39640000D01*
X172500000Y-39640000D02*
X184500000Y-39640000D01*
%TO.C,J1*%
X153500000Y-39650000D02*
X165500000Y-39650000D01*
X153500000Y-44550000D02*
X153500000Y-39650000D01*
X156500000Y-43550000D02*
X156500000Y-44550000D01*
X156500000Y-44550000D02*
X153500000Y-44550000D01*
X162500000Y-43550000D02*
X156500000Y-43550000D01*
X162500000Y-44550000D02*
X162500000Y-43550000D01*
X165500000Y-39650000D02*
X165500000Y-44550000D01*
X165500000Y-44550000D02*
X162500000Y-44550000D01*
D11*
%TO.C,D5*%
X153040000Y-58685000D02*
X154960000Y-58685000D01*
X154960000Y-58685000D02*
X154960000Y-56000000D01*
X153040000Y-56000000D02*
X153040000Y-58685000D01*
%TO.C,D2*%
X165460000Y-49977500D02*
X165460000Y-47292500D01*
X163540000Y-47292500D02*
X163540000Y-49977500D01*
X165460000Y-47292500D02*
X163540000Y-47292500D01*
%TO.C,D1*%
X184460000Y-47315000D02*
X182540000Y-47315000D01*
X182540000Y-47315000D02*
X182540000Y-50000000D01*
X184460000Y-50000000D02*
X184460000Y-47315000D01*
%TO.C,C2*%
X178265000Y-59211252D02*
X178265000Y-58688748D01*
X179735000Y-59211252D02*
X179735000Y-58688748D01*
%TO.C,C1*%
X183265000Y-59211252D02*
X183265000Y-58688748D01*
X184735000Y-59211252D02*
X184735000Y-58688748D01*
%TO.C,D3*%
X172040000Y-67522500D02*
X172040000Y-70207500D01*
X173960000Y-70207500D02*
X173960000Y-67522500D01*
X172040000Y-70207500D02*
X173960000Y-70207500D01*
%TO.C,R2*%
X182765000Y-68099564D02*
X182765000Y-67645436D01*
X184235000Y-68099564D02*
X184235000Y-67645436D01*
D12*
%TO.C,J3*%
X184500000Y-77860000D02*
X172500000Y-77860000D01*
X184500000Y-72960000D02*
X184500000Y-77860000D01*
X181500000Y-73960000D02*
X181500000Y-72960000D01*
X181500000Y-72960000D02*
X184500000Y-72960000D01*
X175500000Y-73960000D02*
X181500000Y-73960000D01*
X175500000Y-72960000D02*
X175500000Y-73960000D01*
X172500000Y-77860000D02*
X172500000Y-72960000D01*
X172500000Y-72960000D02*
X175500000Y-72960000D01*
D11*
%TO.C,Q4*%
X179840000Y-69750000D02*
X179360000Y-69750000D01*
X179600000Y-69420000D01*
X179840000Y-69750000D01*
G36*
X179840000Y-69750000D02*
G01*
X179360000Y-69750000D01*
X179600000Y-69420000D01*
X179840000Y-69750000D01*
G37*
X178437500Y-66350000D02*
X177787500Y-66350000D01*
X178437500Y-66350000D02*
X179087500Y-66350000D01*
X178437500Y-69470000D02*
X177787500Y-69470000D01*
X178437500Y-69470000D02*
X179087500Y-69470000D01*
%TO.C,Q3*%
X159437500Y-70020000D02*
X160087500Y-70020000D01*
X159437500Y-70020000D02*
X158787500Y-70020000D01*
X159437500Y-66900000D02*
X160087500Y-66900000D01*
X159437500Y-66900000D02*
X158787500Y-66900000D01*
X160840000Y-70300000D02*
X160360000Y-70300000D01*
X160600000Y-69970000D01*
X160840000Y-70300000D01*
G36*
X160840000Y-70300000D02*
G01*
X160360000Y-70300000D01*
X160600000Y-69970000D01*
X160840000Y-70300000D01*
G37*
%TO.C,R1*%
X165235000Y-68774564D02*
X165235000Y-68320436D01*
X163765000Y-68774564D02*
X163765000Y-68320436D01*
%TO.C,D4*%
X153540000Y-67460000D02*
X153540000Y-70145000D01*
X155460000Y-70145000D02*
X155460000Y-67460000D01*
X153540000Y-70145000D02*
X155460000Y-70145000D01*
D12*
%TO.C,J4*%
X165500000Y-77860000D02*
X153500000Y-77860000D01*
X165500000Y-72960000D02*
X165500000Y-77860000D01*
X162500000Y-73960000D02*
X162500000Y-72960000D01*
X162500000Y-72960000D02*
X165500000Y-72960000D01*
X156500000Y-73960000D02*
X162500000Y-73960000D01*
X156500000Y-72960000D02*
X156500000Y-73960000D01*
X153500000Y-77860000D02*
X153500000Y-72960000D01*
X153500000Y-72960000D02*
X156500000Y-72960000D01*
%TD*%
M02*
